%TF.GenerationSoftware,KiCad,Pcbnew,7.0.1*%
%TF.CreationDate,2023-03-31T16:52:12+01:00*%
%TF.ProjectId,QuectoDrive,51756563-746f-4447-9269-76652e6b6963,rev?*%
%TF.SameCoordinates,Original*%
%TF.FileFunction,Legend,Bot*%
%TF.FilePolarity,Positive*%
%FSLAX46Y46*%
G04 Gerber Fmt 4.6, Leading zero omitted, Abs format (unit mm)*
G04 Created by KiCad (PCBNEW 7.0.1) date 2023-03-31 16:52:12*
%MOMM*%
%LPD*%
G01*
G04 APERTURE LIST*
%ADD10C,0.080000*%
%ADD11C,0.120000*%
%ADD12C,0.100000*%
%ADD13C,0.200000*%
%ADD14C,1.500000*%
%ADD15R,2.000000X2.000000*%
%ADD16R,1.500000X1.500000*%
G04 APERTURE END LIST*
D10*
X97790000Y-90525600D02*
G75*
G03*
X97790000Y-90525600I-762000J0D01*
G01*
X95285618Y-91218928D02*
X95258832Y-91195119D01*
X95258832Y-91195119D02*
X95208237Y-91171309D01*
X95208237Y-91171309D02*
X95089189Y-91171309D01*
X95089189Y-91171309D02*
X95044547Y-91195119D01*
X95044547Y-91195119D02*
X95023713Y-91218928D01*
X95023713Y-91218928D02*
X95005856Y-91266547D01*
X95005856Y-91266547D02*
X95011808Y-91314166D01*
X95011808Y-91314166D02*
X95044547Y-91385595D01*
X95044547Y-91385595D02*
X95365975Y-91671309D01*
X95365975Y-91671309D02*
X95056451Y-91671309D01*
X94687404Y-91171309D02*
X94639785Y-91171309D01*
X94639785Y-91171309D02*
X94595142Y-91195119D01*
X94595142Y-91195119D02*
X94574309Y-91218928D01*
X94574309Y-91218928D02*
X94556452Y-91266547D01*
X94556452Y-91266547D02*
X94544547Y-91361785D01*
X94544547Y-91361785D02*
X94559428Y-91480833D01*
X94559428Y-91480833D02*
X94595142Y-91576071D01*
X94595142Y-91576071D02*
X94624904Y-91623690D01*
X94624904Y-91623690D02*
X94651690Y-91647500D01*
X94651690Y-91647500D02*
X94702285Y-91671309D01*
X94702285Y-91671309D02*
X94749904Y-91671309D01*
X94749904Y-91671309D02*
X94794547Y-91647500D01*
X94794547Y-91647500D02*
X94815380Y-91623690D01*
X94815380Y-91623690D02*
X94833237Y-91576071D01*
X94833237Y-91576071D02*
X94845142Y-91480833D01*
X94845142Y-91480833D02*
X94830261Y-91361785D01*
X94830261Y-91361785D02*
X94794547Y-91266547D01*
X94794547Y-91266547D02*
X94764785Y-91218928D01*
X94764785Y-91218928D02*
X94737999Y-91195119D01*
X94737999Y-91195119D02*
X94687404Y-91171309D01*
X94339190Y-91218928D02*
X94312404Y-91195119D01*
X94312404Y-91195119D02*
X94261809Y-91171309D01*
X94261809Y-91171309D02*
X94142761Y-91171309D01*
X94142761Y-91171309D02*
X94098119Y-91195119D01*
X94098119Y-91195119D02*
X94077285Y-91218928D01*
X94077285Y-91218928D02*
X94059428Y-91266547D01*
X94059428Y-91266547D02*
X94065380Y-91314166D01*
X94065380Y-91314166D02*
X94098119Y-91385595D01*
X94098119Y-91385595D02*
X94419547Y-91671309D01*
X94419547Y-91671309D02*
X94110023Y-91671309D01*
X93883833Y-91171309D02*
X93574309Y-91171309D01*
X93574309Y-91171309D02*
X93764786Y-91361785D01*
X93764786Y-91361785D02*
X93693357Y-91361785D01*
X93693357Y-91361785D02*
X93648714Y-91385595D01*
X93648714Y-91385595D02*
X93627881Y-91409404D01*
X93627881Y-91409404D02*
X93610024Y-91457023D01*
X93610024Y-91457023D02*
X93624905Y-91576071D01*
X93624905Y-91576071D02*
X93654666Y-91623690D01*
X93654666Y-91623690D02*
X93681452Y-91647500D01*
X93681452Y-91647500D02*
X93732047Y-91671309D01*
X93732047Y-91671309D02*
X93874905Y-91671309D01*
X93874905Y-91671309D02*
X93919547Y-91647500D01*
X93919547Y-91647500D02*
X93940381Y-91623690D01*
X97669690Y-92171404D02*
X97503023Y-92171404D01*
X97464333Y-92433309D02*
X97702428Y-92433309D01*
X97702428Y-92433309D02*
X97639928Y-91933309D01*
X97639928Y-91933309D02*
X97401833Y-91933309D01*
X97038737Y-92433309D02*
X96976237Y-91933309D01*
X97035761Y-92409500D02*
X97086356Y-92433309D01*
X97086356Y-92433309D02*
X97181595Y-92433309D01*
X97181595Y-92433309D02*
X97226237Y-92409500D01*
X97226237Y-92409500D02*
X97247071Y-92385690D01*
X97247071Y-92385690D02*
X97264928Y-92338071D01*
X97264928Y-92338071D02*
X97247071Y-92195214D01*
X97247071Y-92195214D02*
X97217309Y-92147595D01*
X97217309Y-92147595D02*
X97190523Y-92123785D01*
X97190523Y-92123785D02*
X97139928Y-92099976D01*
X97139928Y-92099976D02*
X97044690Y-92099976D01*
X97044690Y-92099976D02*
X97000047Y-92123785D01*
X96428618Y-92290452D02*
X96190523Y-92290452D01*
X96494095Y-92433309D02*
X96264928Y-91933309D01*
X96264928Y-91933309D02*
X96160761Y-92433309D01*
X96026833Y-92099976D02*
X95836357Y-92099976D01*
X95934571Y-91933309D02*
X95988143Y-92361880D01*
X95988143Y-92361880D02*
X95970285Y-92409500D01*
X95970285Y-92409500D02*
X95925643Y-92433309D01*
X95925643Y-92433309D02*
X95878023Y-92433309D01*
X95714333Y-92433309D02*
X95651833Y-91933309D01*
X95642905Y-92242833D02*
X95523857Y-92433309D01*
X95482190Y-92099976D02*
X95696476Y-92290452D01*
X95312547Y-92433309D02*
X95270880Y-92099976D01*
X95250047Y-91933309D02*
X95276833Y-91957119D01*
X95276833Y-91957119D02*
X95255999Y-91980928D01*
X95255999Y-91980928D02*
X95229214Y-91957119D01*
X95229214Y-91957119D02*
X95250047Y-91933309D01*
X95250047Y-91933309D02*
X95255999Y-91980928D01*
X95035761Y-92099976D02*
X95077428Y-92433309D01*
X95041714Y-92147595D02*
X95014928Y-92123785D01*
X95014928Y-92123785D02*
X94964333Y-92099976D01*
X94964333Y-92099976D02*
X94892904Y-92099976D01*
X94892904Y-92099976D02*
X94848261Y-92123785D01*
X94848261Y-92123785D02*
X94830404Y-92171404D01*
X94830404Y-92171404D02*
X94863142Y-92433309D01*
X94648856Y-92409500D02*
X94604214Y-92433309D01*
X94604214Y-92433309D02*
X94508975Y-92433309D01*
X94508975Y-92433309D02*
X94458380Y-92409500D01*
X94458380Y-92409500D02*
X94428618Y-92361880D01*
X94428618Y-92361880D02*
X94425642Y-92338071D01*
X94425642Y-92338071D02*
X94443499Y-92290452D01*
X94443499Y-92290452D02*
X94488142Y-92266642D01*
X94488142Y-92266642D02*
X94559571Y-92266642D01*
X94559571Y-92266642D02*
X94604214Y-92242833D01*
X94604214Y-92242833D02*
X94622071Y-92195214D01*
X94622071Y-92195214D02*
X94619095Y-92171404D01*
X94619095Y-92171404D02*
X94589333Y-92123785D01*
X94589333Y-92123785D02*
X94538737Y-92099976D01*
X94538737Y-92099976D02*
X94467309Y-92099976D01*
X94467309Y-92099976D02*
X94422666Y-92123785D01*
X94154809Y-92433309D02*
X94199451Y-92409500D01*
X94199451Y-92409500D02*
X94220285Y-92385690D01*
X94220285Y-92385690D02*
X94238142Y-92338071D01*
X94238142Y-92338071D02*
X94220285Y-92195214D01*
X94220285Y-92195214D02*
X94190523Y-92147595D01*
X94190523Y-92147595D02*
X94163737Y-92123785D01*
X94163737Y-92123785D02*
X94113142Y-92099976D01*
X94113142Y-92099976D02*
X94041713Y-92099976D01*
X94041713Y-92099976D02*
X93997070Y-92123785D01*
X93997070Y-92123785D02*
X93976237Y-92147595D01*
X93976237Y-92147595D02*
X93958380Y-92195214D01*
X93958380Y-92195214D02*
X93976237Y-92338071D01*
X93976237Y-92338071D02*
X94005999Y-92385690D01*
X94005999Y-92385690D02*
X94032785Y-92409500D01*
X94032785Y-92409500D02*
X94083380Y-92433309D01*
X94083380Y-92433309D02*
X94154809Y-92433309D01*
X93735165Y-92099976D02*
X93776832Y-92433309D01*
X93741118Y-92147595D02*
X93714332Y-92123785D01*
X93714332Y-92123785D02*
X93663737Y-92099976D01*
X93663737Y-92099976D02*
X93592308Y-92099976D01*
X93592308Y-92099976D02*
X93547665Y-92123785D01*
X93547665Y-92123785D02*
X93529808Y-92171404D01*
X93529808Y-92171404D02*
X93562546Y-92433309D01*
D11*
X99836690Y-82546166D02*
X99336690Y-82375333D01*
X99336690Y-82375333D02*
X99836690Y-82079499D01*
X99336690Y-81544975D02*
X99336690Y-81944975D01*
X99336690Y-81744975D02*
X99836690Y-81682475D01*
X99836690Y-81682475D02*
X99765261Y-81758071D01*
X99765261Y-81758071D02*
X99717642Y-81830690D01*
X99717642Y-81830690D02*
X99693833Y-81900333D01*
D12*
X101749690Y-83010285D02*
X102249690Y-83010285D01*
X102249690Y-83010285D02*
X101892547Y-82843618D01*
X101892547Y-82843618D02*
X102249690Y-82676952D01*
X102249690Y-82676952D02*
X101749690Y-82676952D01*
X101749690Y-82176951D02*
X101749690Y-82462665D01*
X101749690Y-82319808D02*
X102249690Y-82319808D01*
X102249690Y-82319808D02*
X102178261Y-82367427D01*
X102178261Y-82367427D02*
X102130642Y-82415046D01*
X102130642Y-82415046D02*
X102106833Y-82462665D01*
X101940166Y-81962666D02*
X101940166Y-81581714D01*
X101749690Y-81772190D02*
X102130642Y-81772190D01*
D13*
X100081928Y-90471440D02*
X100124785Y-90570845D01*
X100124785Y-90570845D02*
X100210500Y-90664892D01*
X100210500Y-90664892D02*
X100339071Y-90805964D01*
X100339071Y-90805964D02*
X100381928Y-90905368D01*
X100381928Y-90905368D02*
X100381928Y-91010130D01*
X100167642Y-90984535D02*
X100210500Y-91083940D01*
X100210500Y-91083940D02*
X100296214Y-91177987D01*
X100296214Y-91177987D02*
X100467642Y-91208940D01*
X100467642Y-91208940D02*
X100767642Y-91171440D01*
X100767642Y-91171440D02*
X100939071Y-91097630D01*
X100939071Y-91097630D02*
X101024785Y-90982154D01*
X101024785Y-90982154D02*
X101067642Y-90872035D01*
X101067642Y-90872035D02*
X101067642Y-90662511D01*
X101067642Y-90662511D02*
X101024785Y-90563107D01*
X101024785Y-90563107D02*
X100939071Y-90469059D01*
X100939071Y-90469059D02*
X100767642Y-90438107D01*
X100767642Y-90438107D02*
X100467642Y-90475607D01*
X100467642Y-90475607D02*
X100296214Y-90549416D01*
X100296214Y-90549416D02*
X100210500Y-90664892D01*
X100210500Y-90664892D02*
X100167642Y-90775011D01*
X100167642Y-90775011D02*
X100167642Y-90984535D01*
X100767642Y-89511320D02*
X100167642Y-89586320D01*
X100767642Y-89982749D02*
X100296214Y-90041677D01*
X100296214Y-90041677D02*
X100210500Y-90000011D01*
X100210500Y-90000011D02*
X100167642Y-89900606D01*
X100167642Y-89900606D02*
X100167642Y-89743463D01*
X100167642Y-89743463D02*
X100210500Y-89633344D01*
X100210500Y-89633344D02*
X100253357Y-89575606D01*
X100210500Y-88643463D02*
X100167642Y-88753582D01*
X100167642Y-88753582D02*
X100167642Y-88963106D01*
X100167642Y-88963106D02*
X100210500Y-89062511D01*
X100210500Y-89062511D02*
X100296214Y-89104177D01*
X100296214Y-89104177D02*
X100639071Y-89061320D01*
X100639071Y-89061320D02*
X100724785Y-88998225D01*
X100724785Y-88998225D02*
X100767642Y-88888106D01*
X100767642Y-88888106D02*
X100767642Y-88678582D01*
X100767642Y-88678582D02*
X100724785Y-88579177D01*
X100724785Y-88579177D02*
X100639071Y-88537511D01*
X100639071Y-88537511D02*
X100553357Y-88548225D01*
X100553357Y-88548225D02*
X100467642Y-89082749D01*
X100210500Y-87653582D02*
X100167642Y-87763701D01*
X100167642Y-87763701D02*
X100167642Y-87973225D01*
X100167642Y-87973225D02*
X100210500Y-88072630D01*
X100210500Y-88072630D02*
X100253357Y-88119654D01*
X100253357Y-88119654D02*
X100339071Y-88161320D01*
X100339071Y-88161320D02*
X100596214Y-88129177D01*
X100596214Y-88129177D02*
X100681928Y-88066082D01*
X100681928Y-88066082D02*
X100724785Y-88008344D01*
X100724785Y-88008344D02*
X100767642Y-87898225D01*
X100767642Y-87898225D02*
X100767642Y-87688701D01*
X100767642Y-87688701D02*
X100724785Y-87589296D01*
X100767642Y-87275011D02*
X100767642Y-86855963D01*
X101067642Y-87080368D02*
X100296214Y-87176796D01*
X100296214Y-87176796D02*
X100210500Y-87135130D01*
X100210500Y-87135130D02*
X100167642Y-87035725D01*
X100167642Y-87035725D02*
X100167642Y-86930963D01*
X100167642Y-86412511D02*
X100210500Y-86511916D01*
X100210500Y-86511916D02*
X100253357Y-86558940D01*
X100253357Y-86558940D02*
X100339071Y-86600606D01*
X100339071Y-86600606D02*
X100596214Y-86568463D01*
X100596214Y-86568463D02*
X100681928Y-86505368D01*
X100681928Y-86505368D02*
X100724785Y-86447630D01*
X100724785Y-86447630D02*
X100767642Y-86337511D01*
X100767642Y-86337511D02*
X100767642Y-86180368D01*
X100767642Y-86180368D02*
X100724785Y-86080963D01*
X100724785Y-86080963D02*
X100681928Y-86033940D01*
X100681928Y-86033940D02*
X100596214Y-85992273D01*
X100596214Y-85992273D02*
X100339071Y-86024416D01*
X100339071Y-86024416D02*
X100253357Y-86087511D01*
X100253357Y-86087511D02*
X100210500Y-86145249D01*
X100210500Y-86145249D02*
X100167642Y-86255368D01*
X100167642Y-86255368D02*
X100167642Y-86412511D01*
X100167642Y-85579773D02*
X101067642Y-85467273D01*
X101067642Y-85467273D02*
X101067642Y-85205368D01*
X101067642Y-85205368D02*
X101024785Y-85053582D01*
X101024785Y-85053582D02*
X100939071Y-84959535D01*
X100939071Y-84959535D02*
X100853357Y-84917868D01*
X100853357Y-84917868D02*
X100681928Y-84886916D01*
X100681928Y-84886916D02*
X100553357Y-84902987D01*
X100553357Y-84902987D02*
X100381928Y-84976797D01*
X100381928Y-84976797D02*
X100296214Y-85039892D01*
X100296214Y-85039892D02*
X100210500Y-85155368D01*
X100210500Y-85155368D02*
X100167642Y-85317868D01*
X100167642Y-85317868D02*
X100167642Y-85579773D01*
X100167642Y-84485130D02*
X100767642Y-84410130D01*
X100596214Y-84431558D02*
X100681928Y-84368463D01*
X100681928Y-84368463D02*
X100724785Y-84310725D01*
X100724785Y-84310725D02*
X100767642Y-84200606D01*
X100767642Y-84200606D02*
X100767642Y-84095844D01*
X100167642Y-83809535D02*
X100767642Y-83734535D01*
X101067642Y-83697035D02*
X101024785Y-83754773D01*
X101024785Y-83754773D02*
X100981928Y-83707749D01*
X100981928Y-83707749D02*
X101024785Y-83650011D01*
X101024785Y-83650011D02*
X101067642Y-83697035D01*
X101067642Y-83697035D02*
X100981928Y-83707749D01*
X100767642Y-83320845D02*
X100167642Y-83133940D01*
X100167642Y-83133940D02*
X100767642Y-82797035D01*
X100210500Y-82033940D02*
X100167642Y-82144059D01*
X100167642Y-82144059D02*
X100167642Y-82353583D01*
X100167642Y-82353583D02*
X100210500Y-82452988D01*
X100210500Y-82452988D02*
X100296214Y-82494654D01*
X100296214Y-82494654D02*
X100639071Y-82451797D01*
X100639071Y-82451797D02*
X100724785Y-82388702D01*
X100724785Y-82388702D02*
X100767642Y-82278583D01*
X100767642Y-82278583D02*
X100767642Y-82069059D01*
X100767642Y-82069059D02*
X100724785Y-81969654D01*
X100724785Y-81969654D02*
X100639071Y-81927988D01*
X100639071Y-81927988D02*
X100553357Y-81938702D01*
X100553357Y-81938702D02*
X100467642Y-82473226D01*
D12*
X92859690Y-82664999D02*
X93359690Y-82664999D01*
X93121595Y-82260237D02*
X93097785Y-82188809D01*
X93097785Y-82188809D02*
X93073976Y-82164999D01*
X93073976Y-82164999D02*
X93026357Y-82141190D01*
X93026357Y-82141190D02*
X92954928Y-82141190D01*
X92954928Y-82141190D02*
X92907309Y-82164999D01*
X92907309Y-82164999D02*
X92883500Y-82188809D01*
X92883500Y-82188809D02*
X92859690Y-82236428D01*
X92859690Y-82236428D02*
X92859690Y-82426904D01*
X92859690Y-82426904D02*
X93359690Y-82426904D01*
X93359690Y-82426904D02*
X93359690Y-82260237D01*
X93359690Y-82260237D02*
X93335880Y-82212618D01*
X93335880Y-82212618D02*
X93312071Y-82188809D01*
X93312071Y-82188809D02*
X93264452Y-82164999D01*
X93264452Y-82164999D02*
X93216833Y-82164999D01*
X93216833Y-82164999D02*
X93169214Y-82188809D01*
X93169214Y-82188809D02*
X93145404Y-82212618D01*
X93145404Y-82212618D02*
X93121595Y-82260237D01*
X93121595Y-82260237D02*
X93121595Y-82426904D01*
X93359690Y-81926904D02*
X92954928Y-81926904D01*
X92954928Y-81926904D02*
X92907309Y-81903094D01*
X92907309Y-81903094D02*
X92883500Y-81879285D01*
X92883500Y-81879285D02*
X92859690Y-81831666D01*
X92859690Y-81831666D02*
X92859690Y-81736428D01*
X92859690Y-81736428D02*
X92883500Y-81688809D01*
X92883500Y-81688809D02*
X92907309Y-81664999D01*
X92907309Y-81664999D02*
X92954928Y-81641190D01*
X92954928Y-81641190D02*
X93359690Y-81641190D01*
X92883500Y-81426903D02*
X92859690Y-81355475D01*
X92859690Y-81355475D02*
X92859690Y-81236427D01*
X92859690Y-81236427D02*
X92883500Y-81188808D01*
X92883500Y-81188808D02*
X92907309Y-81164999D01*
X92907309Y-81164999D02*
X92954928Y-81141189D01*
X92954928Y-81141189D02*
X93002547Y-81141189D01*
X93002547Y-81141189D02*
X93050166Y-81164999D01*
X93050166Y-81164999D02*
X93073976Y-81188808D01*
X93073976Y-81188808D02*
X93097785Y-81236427D01*
X93097785Y-81236427D02*
X93121595Y-81331665D01*
X93121595Y-81331665D02*
X93145404Y-81379284D01*
X93145404Y-81379284D02*
X93169214Y-81403094D01*
X93169214Y-81403094D02*
X93216833Y-81426903D01*
X93216833Y-81426903D02*
X93264452Y-81426903D01*
X93264452Y-81426903D02*
X93312071Y-81403094D01*
X93312071Y-81403094D02*
X93335880Y-81379284D01*
X93335880Y-81379284D02*
X93359690Y-81331665D01*
X93359690Y-81331665D02*
X93359690Y-81212618D01*
X93359690Y-81212618D02*
X93335880Y-81141189D01*
X101749690Y-91392285D02*
X102249690Y-91392285D01*
X102249690Y-91392285D02*
X101892547Y-91225618D01*
X101892547Y-91225618D02*
X102249690Y-91058952D01*
X102249690Y-91058952D02*
X101749690Y-91058952D01*
X102202071Y-90844665D02*
X102225880Y-90820856D01*
X102225880Y-90820856D02*
X102249690Y-90773237D01*
X102249690Y-90773237D02*
X102249690Y-90654189D01*
X102249690Y-90654189D02*
X102225880Y-90606570D01*
X102225880Y-90606570D02*
X102202071Y-90582761D01*
X102202071Y-90582761D02*
X102154452Y-90558951D01*
X102154452Y-90558951D02*
X102106833Y-90558951D01*
X102106833Y-90558951D02*
X102035404Y-90582761D01*
X102035404Y-90582761D02*
X101749690Y-90868475D01*
X101749690Y-90868475D02*
X101749690Y-90558951D01*
X101940166Y-90344666D02*
X101940166Y-89963714D01*
X101749690Y-90154190D02*
X102130642Y-90154190D01*
X93629595Y-89578570D02*
X93605785Y-89507142D01*
X93605785Y-89507142D02*
X93581976Y-89483332D01*
X93581976Y-89483332D02*
X93534357Y-89459523D01*
X93534357Y-89459523D02*
X93462928Y-89459523D01*
X93462928Y-89459523D02*
X93415309Y-89483332D01*
X93415309Y-89483332D02*
X93391500Y-89507142D01*
X93391500Y-89507142D02*
X93367690Y-89554761D01*
X93367690Y-89554761D02*
X93367690Y-89745237D01*
X93367690Y-89745237D02*
X93867690Y-89745237D01*
X93867690Y-89745237D02*
X93867690Y-89578570D01*
X93867690Y-89578570D02*
X93843880Y-89530951D01*
X93843880Y-89530951D02*
X93820071Y-89507142D01*
X93820071Y-89507142D02*
X93772452Y-89483332D01*
X93772452Y-89483332D02*
X93724833Y-89483332D01*
X93724833Y-89483332D02*
X93677214Y-89507142D01*
X93677214Y-89507142D02*
X93653404Y-89530951D01*
X93653404Y-89530951D02*
X93629595Y-89578570D01*
X93629595Y-89578570D02*
X93629595Y-89745237D01*
X93510547Y-89269046D02*
X93510547Y-89030951D01*
X93367690Y-89316665D02*
X93867690Y-89149999D01*
X93867690Y-89149999D02*
X93367690Y-88983332D01*
X93867690Y-88888094D02*
X93867690Y-88602380D01*
X93367690Y-88745237D02*
X93867690Y-88745237D01*
X93558166Y-88435714D02*
X93558166Y-88054762D01*
X93359690Y-85074046D02*
X93359690Y-84764522D01*
X93359690Y-84764522D02*
X93169214Y-84931189D01*
X93169214Y-84931189D02*
X93169214Y-84859760D01*
X93169214Y-84859760D02*
X93145404Y-84812141D01*
X93145404Y-84812141D02*
X93121595Y-84788332D01*
X93121595Y-84788332D02*
X93073976Y-84764522D01*
X93073976Y-84764522D02*
X92954928Y-84764522D01*
X92954928Y-84764522D02*
X92907309Y-84788332D01*
X92907309Y-84788332D02*
X92883500Y-84812141D01*
X92883500Y-84812141D02*
X92859690Y-84859760D01*
X92859690Y-84859760D02*
X92859690Y-85002617D01*
X92859690Y-85002617D02*
X92883500Y-85050236D01*
X92883500Y-85050236D02*
X92907309Y-85074046D01*
X93359690Y-84621665D02*
X92859690Y-84454999D01*
X92859690Y-84454999D02*
X93359690Y-84288332D01*
X93359690Y-84169285D02*
X93359690Y-83859761D01*
X93359690Y-83859761D02*
X93169214Y-84026428D01*
X93169214Y-84026428D02*
X93169214Y-83954999D01*
X93169214Y-83954999D02*
X93145404Y-83907380D01*
X93145404Y-83907380D02*
X93121595Y-83883571D01*
X93121595Y-83883571D02*
X93073976Y-83859761D01*
X93073976Y-83859761D02*
X92954928Y-83859761D01*
X92954928Y-83859761D02*
X92907309Y-83883571D01*
X92907309Y-83883571D02*
X92883500Y-83907380D01*
X92883500Y-83907380D02*
X92859690Y-83954999D01*
X92859690Y-83954999D02*
X92859690Y-84097856D01*
X92859690Y-84097856D02*
X92883500Y-84145475D01*
X92883500Y-84145475D02*
X92907309Y-84169285D01*
D11*
%TO.C,TP14*%
X97978000Y-85445600D02*
G75*
G03*
X97978000Y-85445600I-950000J0D01*
G01*
%TO.C,TP13*%
X97978000Y-90525600D02*
G75*
G03*
X97978000Y-90525600I-950000J0D01*
G01*
%TO.C,TP7*%
X97978000Y-87985600D02*
G75*
G03*
X97978000Y-87985600I-950000J0D01*
G01*
%TO.C,TP5*%
X97978000Y-82905600D02*
G75*
G03*
X97978000Y-82905600I-950000J0D01*
G01*
%TO.C,TP4*%
X93021000Y-89859000D02*
X90621000Y-89859000D01*
X90621000Y-89859000D02*
X90621000Y-92259000D01*
X90621000Y-92259000D02*
X93021000Y-92259000D01*
X93021000Y-92259000D02*
X93021000Y-89859000D01*
%TO.C,TP15*%
X102559000Y-83750000D02*
X104959000Y-83750000D01*
X102559000Y-81350000D02*
X102559000Y-83750000D01*
X104959000Y-81350000D02*
X102559000Y-81350000D01*
X104959000Y-83750000D02*
X104959000Y-81350000D01*
%TO.C,TP3*%
X90621000Y-89084000D02*
X93021000Y-89084000D01*
X90621000Y-86684000D02*
X90621000Y-89084000D01*
X93021000Y-89084000D02*
X93021000Y-86684000D01*
X93021000Y-86684000D02*
X90621000Y-86684000D01*
%TO.C,TP11*%
X104959000Y-89605000D02*
X102559000Y-89605000D01*
X104959000Y-92005000D02*
X104959000Y-89605000D01*
X102559000Y-89605000D02*
X102559000Y-92005000D01*
X102559000Y-92005000D02*
X104959000Y-92005000D01*
%TO.C,TP9*%
X90617000Y-82992000D02*
X92517000Y-82992000D01*
X92517000Y-81092000D02*
X90617000Y-81092000D01*
X92517000Y-82992000D02*
X92517000Y-81092000D01*
X90617000Y-81092000D02*
X90617000Y-82992000D01*
%TO.C,TP8*%
X92517000Y-85532000D02*
X92517000Y-83632000D01*
X90617000Y-85532000D02*
X92517000Y-85532000D01*
X92517000Y-83632000D02*
X90617000Y-83632000D01*
X90617000Y-83632000D02*
X90617000Y-85532000D01*
%TD*%
%LPC*%
D14*
%TO.C,TP14*%
X97028000Y-85445600D03*
%TD*%
%TO.C,TP13*%
X97028000Y-90525600D03*
%TD*%
%TO.C,TP7*%
X97028000Y-87985600D03*
%TD*%
%TO.C,TP5*%
X97028000Y-82905600D03*
%TD*%
D15*
%TO.C,TP4*%
X91821000Y-91059000D03*
%TD*%
%TO.C,TP15*%
X103759000Y-82550000D03*
%TD*%
%TO.C,TP3*%
X91821000Y-87884000D03*
%TD*%
%TO.C,TP11*%
X103759000Y-90805000D03*
%TD*%
D16*
%TO.C,TP9*%
X91567000Y-82042000D03*
%TD*%
%TO.C,TP8*%
X91567000Y-84582000D03*
%TD*%
M02*
