%TF.GenerationSoftware,KiCad,Pcbnew,7.0.1*%
%TF.CreationDate,2023-03-31T16:52:12+01:00*%
%TF.ProjectId,QuectoDrive,51756563-746f-4447-9269-76652e6b6963,rev?*%
%TF.SameCoordinates,Original*%
%TF.FileFunction,Copper,L1,Top*%
%TF.FilePolarity,Positive*%
%FSLAX46Y46*%
G04 Gerber Fmt 4.6, Leading zero omitted, Abs format (unit mm)*
G04 Created by KiCad (PCBNEW 7.0.1) date 2023-03-31 16:52:12*
%MOMM*%
%LPD*%
G01*
G04 APERTURE LIST*
G04 Aperture macros list*
%AMRoundRect*
0 Rectangle with rounded corners*
0 $1 Rounding radius*
0 $2 $3 $4 $5 $6 $7 $8 $9 X,Y pos of 4 corners*
0 Add a 4 corners polygon primitive as box body*
4,1,4,$2,$3,$4,$5,$6,$7,$8,$9,$2,$3,0*
0 Add four circle primitives for the rounded corners*
1,1,$1+$1,$2,$3*
1,1,$1+$1,$4,$5*
1,1,$1+$1,$6,$7*
1,1,$1+$1,$8,$9*
0 Add four rect primitives between the rounded corners*
20,1,$1+$1,$2,$3,$4,$5,0*
20,1,$1+$1,$4,$5,$6,$7,0*
20,1,$1+$1,$6,$7,$8,$9,0*
20,1,$1+$1,$8,$9,$2,$3,0*%
%AMFreePoly0*
4,1,14,0.085355,0.385355,0.100000,0.350000,0.100000,-0.350000,0.085355,-0.385355,0.050000,-0.400000,0.000711,-0.400000,-0.034644,-0.385355,-0.085355,-0.334644,-0.100000,-0.299289,-0.100000,0.350000,-0.085355,0.385355,-0.050000,0.400000,0.050000,0.400000,0.085355,0.385355,0.085355,0.385355,$1*%
%AMFreePoly1*
4,1,14,0.085355,0.385355,0.100000,0.350000,0.100000,-0.299289,0.085355,-0.334644,0.034644,-0.385355,-0.000711,-0.400000,-0.050000,-0.400000,-0.085355,-0.385355,-0.100000,-0.350000,-0.100000,0.350000,-0.085355,0.385355,-0.050000,0.400000,0.050000,0.400000,0.085355,0.385355,0.085355,0.385355,$1*%
%AMFreePoly2*
4,1,14,0.385355,0.085355,0.400000,0.050000,0.400000,-0.050000,0.385355,-0.085355,0.350000,-0.100000,-0.350000,-0.100000,-0.385355,-0.085355,-0.400000,-0.050000,-0.400000,-0.000711,-0.385355,0.034644,-0.334643,0.085355,-0.299289,0.100000,0.350000,0.100000,0.385355,0.085355,0.385355,0.085355,$1*%
%AMFreePoly3*
4,1,14,0.385355,0.085355,0.400000,0.050000,0.400000,-0.050000,0.385355,-0.085355,0.350000,-0.100000,-0.299289,-0.100000,-0.334644,-0.085354,-0.385355,-0.034644,-0.400000,0.000711,-0.400000,0.050000,-0.385355,0.085355,-0.350000,0.100000,0.350000,0.100000,0.385355,0.085355,0.385355,0.085355,$1*%
%AMFreePoly4*
4,1,14,0.034644,0.385355,0.085355,0.334644,0.100000,0.299289,0.100000,-0.350000,0.085355,-0.385355,0.050000,-0.400000,-0.050000,-0.400000,-0.085355,-0.385355,-0.100000,-0.350000,-0.100000,0.350000,-0.085355,0.385355,-0.050000,0.400000,-0.000711,0.400000,0.034644,0.385355,0.034644,0.385355,$1*%
%AMFreePoly5*
4,1,14,0.085355,0.385355,0.100000,0.350000,0.100000,-0.350000,0.085355,-0.385355,0.050000,-0.400000,-0.050000,-0.400000,-0.085355,-0.385355,-0.100000,-0.350000,-0.100000,0.299289,-0.085355,0.334644,-0.034644,0.385355,0.000711,0.400000,0.050000,0.400000,0.085355,0.385355,0.085355,0.385355,$1*%
%AMFreePoly6*
4,1,14,0.385355,0.085355,0.400000,0.050000,0.400000,0.000711,0.385355,-0.034644,0.334644,-0.085355,0.299289,-0.100000,-0.350000,-0.100000,-0.385355,-0.085355,-0.400000,-0.050000,-0.400000,0.050000,-0.385355,0.085355,-0.350000,0.100000,0.350000,0.100000,0.385355,0.085355,0.385355,0.085355,$1*%
%AMFreePoly7*
4,1,14,0.334644,0.085355,0.385355,0.034644,0.400000,-0.000711,0.400000,-0.050000,0.385355,-0.085355,0.350000,-0.100000,-0.350000,-0.100000,-0.385355,-0.085355,-0.400000,-0.050000,-0.400000,0.050000,-0.385355,0.085355,-0.350000,0.100000,0.299289,0.100000,0.334644,0.085355,0.334644,0.085355,$1*%
G04 Aperture macros list end*
%TA.AperFunction,SMDPad,CuDef*%
%ADD10R,1.700000X1.700000*%
%TD*%
%TA.AperFunction,SMDPad,CuDef*%
%ADD11FreePoly0,0.000000*%
%TD*%
%TA.AperFunction,SMDPad,CuDef*%
%ADD12RoundRect,0.050000X-0.050000X-0.350000X0.050000X-0.350000X0.050000X0.350000X-0.050000X0.350000X0*%
%TD*%
%TA.AperFunction,SMDPad,CuDef*%
%ADD13FreePoly1,0.000000*%
%TD*%
%TA.AperFunction,SMDPad,CuDef*%
%ADD14FreePoly2,0.000000*%
%TD*%
%TA.AperFunction,SMDPad,CuDef*%
%ADD15RoundRect,0.050000X-0.350000X-0.050000X0.350000X-0.050000X0.350000X0.050000X-0.350000X0.050000X0*%
%TD*%
%TA.AperFunction,SMDPad,CuDef*%
%ADD16FreePoly3,0.000000*%
%TD*%
%TA.AperFunction,SMDPad,CuDef*%
%ADD17FreePoly4,0.000000*%
%TD*%
%TA.AperFunction,SMDPad,CuDef*%
%ADD18FreePoly5,0.000000*%
%TD*%
%TA.AperFunction,SMDPad,CuDef*%
%ADD19FreePoly6,0.000000*%
%TD*%
%TA.AperFunction,SMDPad,CuDef*%
%ADD20FreePoly7,0.000000*%
%TD*%
%TA.AperFunction,SMDPad,CuDef*%
%ADD21RoundRect,0.135000X0.185000X-0.135000X0.185000X0.135000X-0.185000X0.135000X-0.185000X-0.135000X0*%
%TD*%
%TA.AperFunction,SMDPad,CuDef*%
%ADD22R,2.000000X2.000000*%
%TD*%
%TA.AperFunction,SMDPad,CuDef*%
%ADD23R,1.500000X1.500000*%
%TD*%
%TA.AperFunction,SMDPad,CuDef*%
%ADD24RoundRect,0.140000X0.170000X-0.140000X0.170000X0.140000X-0.170000X0.140000X-0.170000X-0.140000X0*%
%TD*%
%TA.AperFunction,SMDPad,CuDef*%
%ADD25RoundRect,0.140000X-0.170000X0.140000X-0.170000X-0.140000X0.170000X-0.140000X0.170000X0.140000X0*%
%TD*%
%TA.AperFunction,SMDPad,CuDef*%
%ADD26RoundRect,0.135000X-0.135000X-0.185000X0.135000X-0.185000X0.135000X0.185000X-0.135000X0.185000X0*%
%TD*%
%TA.AperFunction,SMDPad,CuDef*%
%ADD27RoundRect,0.218750X-0.218750X-0.256250X0.218750X-0.256250X0.218750X0.256250X-0.218750X0.256250X0*%
%TD*%
%TA.AperFunction,SMDPad,CuDef*%
%ADD28RoundRect,0.140000X-0.140000X-0.170000X0.140000X-0.170000X0.140000X0.170000X-0.140000X0.170000X0*%
%TD*%
%TA.AperFunction,SMDPad,CuDef*%
%ADD29R,0.500000X0.250000*%
%TD*%
%TA.AperFunction,SMDPad,CuDef*%
%ADD30R,0.900000X1.600000*%
%TD*%
%TA.AperFunction,SMDPad,CuDef*%
%ADD31RoundRect,0.150000X0.150000X-0.512500X0.150000X0.512500X-0.150000X0.512500X-0.150000X-0.512500X0*%
%TD*%
%TA.AperFunction,ViaPad*%
%ADD32C,0.400000*%
%TD*%
%TA.AperFunction,ViaPad*%
%ADD33C,0.800000*%
%TD*%
%TA.AperFunction,Conductor*%
%ADD34C,0.200000*%
%TD*%
%TA.AperFunction,Conductor*%
%ADD35C,0.800000*%
%TD*%
%TA.AperFunction,Conductor*%
%ADD36C,0.300000*%
%TD*%
%TA.AperFunction,Conductor*%
%ADD37C,1.500000*%
%TD*%
G04 APERTURE END LIST*
D10*
%TO.P,U2,21,GND*%
%TO.N,GND*%
X95587000Y-84201000D03*
D11*
%TO.P,U2,20,PA1*%
%TO.N,/DEBUG_TX*%
X94787000Y-82751000D03*
D12*
%TO.P,U2,19,~{RESET}/PA0*%
%TO.N,/UDPI*%
X95187000Y-82751000D03*
%TO.P,U2,18,PC3*%
%TO.N,unconnected-(U2-PC3-Pad18)*%
X95587000Y-82751000D03*
%TO.P,U2,17,PC2*%
%TO.N,unconnected-(U2-PC2-Pad17)*%
X95987000Y-82751000D03*
D13*
%TO.P,U2,16,PC1*%
%TO.N,/IO_2*%
X96387000Y-82751000D03*
D14*
%TO.P,U2,15,PC0*%
%TO.N,/IO_1*%
X97037000Y-83401000D03*
D15*
%TO.P,U2,14,PB0*%
%TO.N,Net-(U2-PB0)*%
X97037000Y-83801000D03*
%TO.P,U2,13,PB1*%
%TO.N,/MOT_1B*%
X97037000Y-84201000D03*
%TO.P,U2,12,PB2*%
%TO.N,/MOT_1A*%
X97037000Y-84601000D03*
D16*
%TO.P,U2,11,PB3*%
%TO.N,unconnected-(U2-PB3-Pad11)*%
X97037000Y-85001000D03*
D17*
%TO.P,U2,10,PB4*%
%TO.N,unconnected-(U2-PB4-Pad10)*%
X96387000Y-85651000D03*
D12*
%TO.P,U2,9,PB5*%
%TO.N,unconnected-(U2-PB5-Pad9)*%
X95987000Y-85651000D03*
%TO.P,U2,8,PA7*%
%TO.N,unconnected-(U2-PA7-Pad8)*%
X95587000Y-85651000D03*
%TO.P,U2,7,PA6*%
%TO.N,/MOT_2B*%
X95187000Y-85651000D03*
D18*
%TO.P,U2,6,PA5*%
%TO.N,/MOT_2A*%
X94787000Y-85651000D03*
D19*
%TO.P,U2,5,PA4*%
%TO.N,Net-(U2-PA4)*%
X94137000Y-85001000D03*
D15*
%TO.P,U2,4,VCC*%
%TO.N,+3.3V*%
X94137000Y-84601000D03*
%TO.P,U2,3,GND*%
%TO.N,GND*%
X94137000Y-84201000D03*
%TO.P,U2,2,PA3*%
%TO.N,unconnected-(U2-PA3-Pad2)*%
X94137000Y-83801000D03*
D20*
%TO.P,U2,1,PA2*%
%TO.N,/IBUS*%
X94137000Y-83401000D03*
%TD*%
D21*
%TO.P,R3,2*%
%TO.N,GND*%
X98806000Y-87628000D03*
%TO.P,R3,1*%
%TO.N,Net-(U2-PA4)*%
X98806000Y-88648000D03*
%TD*%
D22*
%TO.P,TP1,1,1*%
%TO.N,+BATT*%
X91821000Y-87884000D03*
%TD*%
D23*
%TO.P,TP10,1,1*%
%TO.N,/IO_1*%
X91567000Y-82042000D03*
%TD*%
D24*
%TO.P,C1,1*%
%TO.N,+3.3V*%
X94234000Y-88237000D03*
%TO.P,C1,2*%
%TO.N,GND*%
X94234000Y-87277000D03*
%TD*%
D25*
%TO.P,C9,2*%
%TO.N,GND*%
X101092000Y-90396000D03*
%TO.P,C9,1*%
%TO.N,+BATT*%
X101092000Y-89436000D03*
%TD*%
D26*
%TO.P,R1,1*%
%TO.N,Net-(U2-PB0)*%
X97153000Y-81280000D03*
%TO.P,R1,2*%
%TO.N,Net-(D1-K)*%
X98173000Y-81280000D03*
%TD*%
D22*
%TO.P,TP12,1,1*%
%TO.N,/M2-*%
X103759000Y-90805000D03*
%TD*%
D24*
%TO.P,C2,2*%
%TO.N,GND*%
X94234000Y-90452000D03*
%TO.P,C2,1*%
%TO.N,+BATT*%
X94234000Y-91412000D03*
%TD*%
D21*
%TO.P,R2,2*%
%TO.N,Net-(U2-PA4)*%
X98806000Y-89660000D03*
%TO.P,R2,1*%
%TO.N,+BATT*%
X98806000Y-90680000D03*
%TD*%
D27*
%TO.P,D1,2,A*%
%TO.N,+3.3V*%
X100990500Y-81534000D03*
%TO.P,D1,1,K*%
%TO.N,Net-(D1-K)*%
X99415500Y-81534000D03*
%TD*%
D22*
%TO.P,TP2,1,1*%
%TO.N,+BATT*%
X91821000Y-91059000D03*
%TD*%
D28*
%TO.P,C8,2*%
%TO.N,GND*%
X103604000Y-85598000D03*
%TO.P,C8,1*%
%TO.N,+BATT*%
X102644000Y-85598000D03*
%TD*%
D29*
%TO.P,U3,1,VM*%
%TO.N,+BATT*%
X101280000Y-84570000D03*
%TO.P,U3,2,OUT1*%
%TO.N,/M1+*%
X101280000Y-84070000D03*
%TO.P,U3,3,OUT2*%
%TO.N,/M1-*%
X101280000Y-83570000D03*
%TO.P,U3,4,GND*%
%TO.N,GND*%
X101280000Y-83070000D03*
%TO.P,U3,5,IN2*%
%TO.N,/MOT_1B*%
X99380000Y-83070000D03*
%TO.P,U3,6,IN1*%
%TO.N,/MOT_1A*%
X99380000Y-83570000D03*
%TO.P,U3,7,~{SLEEP}*%
%TO.N,+3.3V*%
X99380000Y-84070000D03*
%TO.P,U3,8,VCC*%
X99380000Y-84570000D03*
D30*
%TO.P,U3,9,GND*%
%TO.N,GND*%
X100330000Y-83820000D03*
%TD*%
D22*
%TO.P,TP16,1,1*%
%TO.N,/M1-*%
X103759000Y-82550000D03*
%TD*%
D25*
%TO.P,C6,2*%
%TO.N,GND*%
X99949000Y-90368000D03*
%TO.P,C6,1*%
%TO.N,+3.3V*%
X99949000Y-89408000D03*
%TD*%
D28*
%TO.P,C5,2*%
%TO.N,GND*%
X100556000Y-85852000D03*
%TO.P,C5,1*%
%TO.N,+3.3V*%
X99596000Y-85852000D03*
%TD*%
D29*
%TO.P,U4,1,VM*%
%TO.N,+BATT*%
X102550000Y-88380000D03*
%TO.P,U4,2,OUT1*%
%TO.N,/M2+*%
X102550000Y-87880000D03*
%TO.P,U4,3,OUT2*%
%TO.N,/M2-*%
X102550000Y-87380000D03*
%TO.P,U4,4,GND*%
%TO.N,GND*%
X102550000Y-86880000D03*
%TO.P,U4,5,IN2*%
%TO.N,/MOT_2B*%
X100650000Y-86880000D03*
%TO.P,U4,6,IN1*%
%TO.N,/MOT_2A*%
X100650000Y-87380000D03*
%TO.P,U4,7,~{SLEEP}*%
%TO.N,+3.3V*%
X100650000Y-87880000D03*
%TO.P,U4,8,VCC*%
X100650000Y-88380000D03*
D30*
%TO.P,U4,9,GND*%
%TO.N,GND*%
X101600000Y-87630000D03*
%TD*%
D31*
%TO.P,U1,5,OUT*%
%TO.N,+3.3V*%
X95570000Y-88524500D03*
%TO.P,U1,4,BP*%
%TO.N,unconnected-(U1-BP-Pad4)*%
X97470000Y-88524500D03*
%TO.P,U1,3,EN*%
%TO.N,+BATT*%
X97470000Y-90799500D03*
%TO.P,U1,2,GND*%
%TO.N,GND*%
X96520000Y-90799500D03*
%TO.P,U1,1,IN*%
%TO.N,+BATT*%
X95570000Y-90799500D03*
%TD*%
D23*
%TO.P,TP6,1,1*%
%TO.N,/IO_2*%
X91567000Y-84582000D03*
%TD*%
D32*
%TO.N,GND*%
X96605532Y-89818932D03*
X104902000Y-92329000D03*
X104775000Y-81026000D03*
X94869000Y-84201000D03*
X93091000Y-89408000D03*
X96411031Y-81007970D03*
X98425000Y-82042000D03*
X98425000Y-82804000D03*
X105029000Y-89281000D03*
X90551000Y-83312000D03*
X95587000Y-84201000D03*
X90551000Y-86106000D03*
X90551000Y-89535000D03*
X93345000Y-90805000D03*
%TO.N,+3.3V*%
X101219000Y-82423000D03*
%TO.N,/DEBUG_TX*%
X93715457Y-82901500D03*
%TO.N,GND*%
X93894500Y-86741000D03*
%TO.N,/UDPI*%
X94107000Y-82423000D03*
%TO.N,/IBUS*%
X93190200Y-83411200D03*
%TO.N,GND*%
X94836571Y-87757000D03*
X99695000Y-85103000D03*
X99371888Y-90169987D03*
X101981000Y-92329000D03*
D33*
%TO.N,+BATT*%
X101854000Y-85598000D03*
X100838000Y-91821000D03*
D32*
%TO.N,GND*%
X94323500Y-89535000D03*
X95911623Y-89666437D03*
X104648000Y-85598000D03*
X101727000Y-88900000D03*
X98171000Y-87376000D03*
X102235000Y-81153000D03*
X102399500Y-86360000D03*
X102235000Y-84836000D03*
X99949000Y-91186000D03*
X104902000Y-84074000D03*
X104775000Y-87630000D03*
X99355500Y-91313000D03*
X92456000Y-86106000D03*
X103632000Y-86614000D03*
X98171000Y-85968980D03*
X103632000Y-84836000D03*
D33*
%TO.N,/M1+*%
X102899752Y-84194285D03*
%TO.N,/M2+*%
X103378000Y-89154000D03*
%TO.N,+3.3V*%
X95123000Y-89535000D03*
X98806000Y-85344000D03*
X99642777Y-88174360D03*
%TD*%
D34*
%TO.N,Net-(U2-PA4)*%
X95265254Y-87376000D02*
X94137000Y-86247746D01*
X96774000Y-87884000D02*
X96266000Y-87376000D01*
X97028000Y-89535000D02*
X96774000Y-89281000D01*
X96774000Y-89281000D02*
X96774000Y-87884000D01*
X94137000Y-86247746D02*
X94137000Y-85001000D01*
X98681000Y-89535000D02*
X97028000Y-89535000D01*
X96266000Y-87376000D02*
X95265254Y-87376000D01*
X98806000Y-89660000D02*
X98681000Y-89535000D01*
D35*
%TO.N,+BATT*%
X92075000Y-90805000D02*
X93383000Y-92113000D01*
X93383000Y-92113000D02*
X94323500Y-92113000D01*
X100546000Y-92113000D02*
X100838000Y-91821000D01*
X94323500Y-92113000D02*
X100546000Y-92113000D01*
D34*
%TO.N,GND*%
X94869000Y-84201000D02*
X95587000Y-84201000D01*
D36*
%TO.N,+BATT*%
X101854000Y-90805000D02*
X100838000Y-91821000D01*
X101854000Y-89662000D02*
X101854000Y-90805000D01*
D34*
X94234000Y-91412000D02*
X94234000Y-92202500D01*
%TO.N,GND*%
X94308000Y-84201000D02*
X94869000Y-84201000D01*
X95587000Y-84201000D02*
X95758000Y-84201000D01*
%TO.N,/IO_1*%
X92876211Y-81113789D02*
X92075000Y-81915000D01*
X95810450Y-81113789D02*
X92876211Y-81113789D01*
X97037000Y-82340339D02*
X95810450Y-81113789D01*
X97037000Y-83401000D02*
X97037000Y-82340339D01*
%TO.N,/IO_2*%
X94127211Y-81513789D02*
X92075000Y-83566000D01*
X95644764Y-81513789D02*
X94127211Y-81513789D01*
X96387000Y-82256025D02*
X95644764Y-81513789D01*
X96387000Y-82751000D02*
X96387000Y-82256025D01*
X92075000Y-83566000D02*
X92075000Y-84455000D01*
%TO.N,+3.3V*%
X100990500Y-82194500D02*
X101219000Y-82423000D01*
X100990500Y-81534000D02*
X100990500Y-82194500D01*
%TO.N,Net-(D1-K)*%
X99161500Y-81280000D02*
X99415500Y-81534000D01*
X98173000Y-81280000D02*
X99161500Y-81280000D01*
%TO.N,Net-(U2-PB0)*%
X97536000Y-83801000D02*
X97037000Y-83801000D01*
X97737000Y-83600000D02*
X97536000Y-83801000D01*
X97737000Y-82303654D02*
X97737000Y-83600000D01*
X97153000Y-81719654D02*
X97737000Y-82303654D01*
X97153000Y-81280000D02*
X97153000Y-81719654D01*
%TO.N,/UDPI*%
X95187000Y-82751000D02*
X95187000Y-82256025D01*
X95187000Y-82256025D02*
X94972975Y-82042000D01*
X94972975Y-82042000D02*
X94488000Y-82042000D01*
X94488000Y-82042000D02*
X94107000Y-82423000D01*
%TO.N,/DEBUG_TX*%
X93744957Y-82931000D02*
X94651264Y-82931000D01*
X93715457Y-82901500D02*
X93744957Y-82931000D01*
X94651264Y-82931000D02*
X94787000Y-82795264D01*
%TO.N,/MOT_1B*%
X98656000Y-83404994D02*
X98990994Y-83070000D01*
X98656000Y-83411621D02*
X98656000Y-83404994D01*
X97866621Y-84201000D02*
X98656000Y-83411621D01*
X98990994Y-83070000D02*
X99380000Y-83070000D01*
X97208000Y-84201000D02*
X97866621Y-84201000D01*
%TO.N,Net-(U2-PB0)*%
X97208000Y-83801000D02*
X97555000Y-83801000D01*
%TO.N,/MOT_2B*%
X99919160Y-86468480D02*
X100330680Y-86880000D01*
X95489106Y-86468480D02*
X99919160Y-86468480D01*
X95187000Y-86166374D02*
X95489106Y-86468480D01*
X95187000Y-85651000D02*
X95187000Y-86166374D01*
X100330680Y-86880000D02*
X100650000Y-86880000D01*
%TO.N,/MOT_2A*%
X100264994Y-87380000D02*
X100650000Y-87380000D01*
X95323420Y-86868480D02*
X99753474Y-86868480D01*
X94787000Y-86332060D02*
X95323420Y-86868480D01*
X94787000Y-85651000D02*
X94787000Y-86332060D01*
X99753474Y-86868480D02*
X100264994Y-87380000D01*
%TO.N,+3.3V*%
X93345000Y-84836000D02*
X93345000Y-87475127D01*
X93580000Y-84601000D02*
X93345000Y-84836000D01*
X94137000Y-84601000D02*
X93580000Y-84601000D01*
X93345000Y-87475127D02*
X94576373Y-88706500D01*
X94576373Y-88706500D02*
X95123000Y-88706500D01*
%TO.N,/DEBUG_TX*%
X94787000Y-82795264D02*
X94787000Y-82751000D01*
%TO.N,/IBUS*%
X93200400Y-83401000D02*
X94308000Y-83401000D01*
X93190200Y-83411200D02*
X93200400Y-83401000D01*
%TO.N,/MOT_1A*%
X98032307Y-84601000D02*
X97208000Y-84601000D01*
X99055999Y-83577308D02*
X98032307Y-84601000D01*
D37*
%TO.N,+BATT*%
X91821000Y-88124000D02*
X91821000Y-90311000D01*
D36*
%TO.N,+3.3V*%
X99848417Y-88380000D02*
X100650000Y-88380000D01*
X99642777Y-88174360D02*
X99848417Y-88380000D01*
%TO.N,+BATT*%
X102550000Y-88981818D02*
X102550000Y-88380000D01*
X101854000Y-89662000D02*
X101869818Y-89662000D01*
X101869818Y-89662000D02*
X102550000Y-88981818D01*
X98806000Y-90680000D02*
X98806000Y-91948000D01*
D35*
%TO.N,+3.3V*%
X95123000Y-88706500D02*
X95437500Y-88392000D01*
X95123000Y-89535000D02*
X95123000Y-88706500D01*
D34*
%TO.N,Net-(U2-PA4)*%
X98806000Y-88648000D02*
X98806000Y-89660000D01*
%TO.N,+BATT*%
X97470000Y-92136000D02*
X97536000Y-92202000D01*
D36*
X101854000Y-89662000D02*
X101318000Y-89662000D01*
D35*
X95570000Y-90799500D02*
X95570000Y-92014000D01*
D36*
X101318000Y-89662000D02*
X101092000Y-89436000D01*
D35*
X97470000Y-90799500D02*
X97470000Y-92136000D01*
D36*
X101981000Y-85725000D02*
X102517000Y-85725000D01*
X101854000Y-85598000D02*
X101439520Y-85183520D01*
X101439520Y-84729520D02*
X101280000Y-84570000D01*
X101854000Y-85598000D02*
X101981000Y-85725000D01*
X101439520Y-85183520D02*
X101439520Y-84729520D01*
%TO.N,GND*%
X102550000Y-86880000D02*
X101724022Y-86880000D01*
X101600000Y-87004022D02*
X101600000Y-87630000D01*
X101724022Y-86880000D02*
X101600000Y-87004022D01*
%TO.N,/M1+*%
X102899752Y-84194285D02*
X102775467Y-84070000D01*
X102775467Y-84070000D02*
X101280000Y-84070000D01*
%TO.N,/M1-*%
X102485000Y-83570000D02*
X103505000Y-82550000D01*
X101280000Y-83570000D02*
X102485000Y-83570000D01*
%TO.N,/M2+*%
X103378000Y-88138000D02*
X103120000Y-87880000D01*
X103120000Y-87880000D02*
X102550000Y-87880000D01*
X103378000Y-89154000D02*
X103378000Y-88138000D01*
%TO.N,/M2-*%
X103382000Y-87380000D02*
X104140000Y-88138000D01*
X102550000Y-87380000D02*
X103382000Y-87380000D01*
X104140000Y-90170000D02*
X103505000Y-90805000D01*
X104140000Y-88138000D02*
X104140000Y-90170000D01*
D34*
%TO.N,/MOT_1A*%
X99056000Y-83570000D02*
X99055999Y-83577308D01*
X99380000Y-83570000D02*
X99056000Y-83570000D01*
D36*
%TO.N,+3.3V*%
X98806000Y-85144000D02*
X99380000Y-84570000D01*
X99380000Y-84070000D02*
X99380000Y-84570000D01*
X100650000Y-87880000D02*
X100650000Y-88380000D01*
X98806000Y-85344000D02*
X98806000Y-85144000D01*
X99088000Y-85344000D02*
X99596000Y-85852000D01*
X98806000Y-85344000D02*
X99088000Y-85344000D01*
X100650000Y-88707000D02*
X99949000Y-89408000D01*
X100650000Y-88380000D02*
X100650000Y-88707000D01*
%TD*%
%TA.AperFunction,Conductor*%
%TO.N,GND*%
G36*
X105391048Y-80663952D02*
G01*
X105409500Y-80708500D01*
X105409500Y-92646500D01*
X105391048Y-92691048D01*
X105346500Y-92709500D01*
X100940648Y-92709500D01*
X100903952Y-92697709D01*
X100880991Y-92666751D01*
X100880361Y-92628212D01*
X100902296Y-92596519D01*
X100926443Y-92577989D01*
X100974282Y-92541282D01*
X100995942Y-92513052D01*
X101001361Y-92506872D01*
X101231872Y-92276361D01*
X101238052Y-92270942D01*
X101266282Y-92249282D01*
X101362536Y-92123841D01*
X101423044Y-91977762D01*
X101443682Y-91821000D01*
X101434940Y-91754597D01*
X101437744Y-91726124D01*
X101452851Y-91701829D01*
X102071522Y-91083158D01*
X102081610Y-91074968D01*
X102083574Y-91073685D01*
X102094669Y-91066437D01*
X102114832Y-91040529D01*
X102119980Y-91034700D01*
X102122375Y-91032307D01*
X102134321Y-91015573D01*
X102135822Y-91013560D01*
X102166517Y-90974126D01*
X102166518Y-90974123D01*
X102167361Y-90973040D01*
X102172849Y-90962381D01*
X102187490Y-90913199D01*
X102188275Y-90910746D01*
X102204500Y-90863488D01*
X102204500Y-90863486D01*
X102204944Y-90862193D01*
X102206674Y-90850321D01*
X102204554Y-90799075D01*
X102204500Y-90796471D01*
X102204500Y-89849096D01*
X102222952Y-89804548D01*
X102335738Y-89691762D01*
X102703963Y-89323535D01*
X102740286Y-89305624D01*
X102780009Y-89313525D01*
X102806713Y-89343976D01*
X102853463Y-89456840D01*
X102858701Y-89463666D01*
X102880066Y-89491510D01*
X102888997Y-89503148D01*
X102901776Y-89546991D01*
X102881578Y-89587948D01*
X102839016Y-89604500D01*
X102739252Y-89604500D01*
X102706700Y-89610975D01*
X102680768Y-89616133D01*
X102614448Y-89660448D01*
X102570133Y-89726768D01*
X102570132Y-89726769D01*
X102570133Y-89726769D01*
X102558500Y-89785252D01*
X102558500Y-91824748D01*
X102570133Y-91883231D01*
X102614448Y-91949552D01*
X102680769Y-91993867D01*
X102739252Y-92005500D01*
X104778746Y-92005500D01*
X104778748Y-92005500D01*
X104837231Y-91993867D01*
X104903552Y-91949552D01*
X104947867Y-91883231D01*
X104959500Y-91824748D01*
X104959500Y-89785252D01*
X104947867Y-89726769D01*
X104903552Y-89660448D01*
X104837231Y-89616133D01*
X104778748Y-89604500D01*
X104778746Y-89604500D01*
X104553500Y-89604500D01*
X104508952Y-89586048D01*
X104490500Y-89541500D01*
X104490500Y-88180885D01*
X104491841Y-88167955D01*
X104495043Y-88152684D01*
X104490984Y-88120124D01*
X104490500Y-88112330D01*
X104490500Y-88108963D01*
X104490500Y-88108960D01*
X104487119Y-88088704D01*
X104486749Y-88086155D01*
X104486439Y-88083670D01*
X104480573Y-88036607D01*
X104480404Y-88035249D01*
X104476747Y-88023832D01*
X104476092Y-88022622D01*
X104476092Y-88022619D01*
X104452303Y-87978662D01*
X104451148Y-87976417D01*
X104429198Y-87931516D01*
X104429196Y-87931514D01*
X104428596Y-87930286D01*
X104421431Y-87920675D01*
X104420418Y-87919742D01*
X104383668Y-87885911D01*
X104381814Y-87884132D01*
X103660162Y-87162480D01*
X103651968Y-87152388D01*
X103643437Y-87139331D01*
X103617545Y-87119178D01*
X103611696Y-87114013D01*
X103609311Y-87111628D01*
X103592630Y-87099718D01*
X103590544Y-87098162D01*
X103550047Y-87066642D01*
X103539376Y-87061149D01*
X103490204Y-87046509D01*
X103487727Y-87045716D01*
X103439193Y-87029055D01*
X103427321Y-87027325D01*
X103376075Y-87029446D01*
X103373471Y-87029500D01*
X102520960Y-87029500D01*
X102477789Y-87036703D01*
X102434617Y-87043908D01*
X102429077Y-87046907D01*
X102399093Y-87054500D01*
X102280252Y-87054500D01*
X102241263Y-87062255D01*
X102221768Y-87066133D01*
X102155448Y-87110448D01*
X102111133Y-87176768D01*
X102111132Y-87176769D01*
X102111133Y-87176769D01*
X102099500Y-87235252D01*
X102099500Y-87524748D01*
X102107353Y-87564228D01*
X102111133Y-87583232D01*
X102118996Y-87595000D01*
X102129613Y-87630000D01*
X102118996Y-87665000D01*
X102111133Y-87676767D01*
X102110216Y-87681379D01*
X102099500Y-87735252D01*
X102099500Y-88024748D01*
X102101589Y-88035249D01*
X102111133Y-88083232D01*
X102118996Y-88095000D01*
X102129613Y-88130000D01*
X102118996Y-88165000D01*
X102111133Y-88176767D01*
X102110796Y-88178463D01*
X102099500Y-88235252D01*
X102099500Y-88524748D01*
X102111133Y-88583231D01*
X102155448Y-88649552D01*
X102171504Y-88660280D01*
X102192061Y-88682962D01*
X102199500Y-88712660D01*
X102199500Y-88810541D01*
X102194704Y-88834650D01*
X102181048Y-88855089D01*
X101743088Y-89293048D01*
X101698540Y-89311500D01*
X101665042Y-89311500D01*
X101623502Y-89295865D01*
X101602581Y-89256721D01*
X101595972Y-89206512D01*
X101545225Y-89097685D01*
X101460314Y-89012774D01*
X101351488Y-88962028D01*
X101301901Y-88955500D01*
X101025636Y-88955500D01*
X100983607Y-88939431D01*
X100963017Y-88899422D01*
X100969607Y-88874148D01*
X100966240Y-88873146D01*
X100978574Y-88831711D01*
X100983495Y-88815183D01*
X100984275Y-88812746D01*
X101000500Y-88765488D01*
X101000500Y-88765485D01*
X101000944Y-88764192D01*
X101002674Y-88752322D01*
X101001432Y-88722294D01*
X101001125Y-88714880D01*
X101007908Y-88683735D01*
X101029068Y-88659897D01*
X101044552Y-88649552D01*
X101088867Y-88583231D01*
X101100500Y-88524748D01*
X101100500Y-88235252D01*
X101088867Y-88176769D01*
X101081005Y-88165003D01*
X101070386Y-88130000D01*
X101081005Y-88094997D01*
X101081231Y-88094657D01*
X101088867Y-88083231D01*
X101100500Y-88024748D01*
X101100500Y-87735252D01*
X101088867Y-87676769D01*
X101081005Y-87665003D01*
X101070386Y-87630000D01*
X101081005Y-87594997D01*
X101084801Y-87589316D01*
X101088867Y-87583231D01*
X101100500Y-87524748D01*
X101100500Y-87235252D01*
X101088867Y-87176769D01*
X101081005Y-87165003D01*
X101070386Y-87130000D01*
X101081005Y-87094997D01*
X101081231Y-87094657D01*
X101088867Y-87083231D01*
X101100500Y-87024748D01*
X101100500Y-86735252D01*
X101088867Y-86676769D01*
X101044552Y-86610448D01*
X100978231Y-86566133D01*
X100919748Y-86554500D01*
X100919746Y-86554500D01*
X100456247Y-86554500D01*
X100411699Y-86536048D01*
X100173572Y-86297921D01*
X100164922Y-86285897D01*
X100153616Y-86275590D01*
X100127801Y-86252056D01*
X100125719Y-86250067D01*
X100111958Y-86236307D01*
X100111957Y-86236306D01*
X100109801Y-86234829D01*
X100102966Y-86229415D01*
X100075455Y-86204335D01*
X100056124Y-86170147D01*
X100060800Y-86131154D01*
X100069972Y-86111487D01*
X100076500Y-86061901D01*
X100076499Y-85642100D01*
X100069972Y-85592513D01*
X100069972Y-85592512D01*
X100019225Y-85483685D01*
X99934314Y-85398774D01*
X99825488Y-85348028D01*
X99775901Y-85341500D01*
X99607278Y-85341500D01*
X99562730Y-85323048D01*
X99387229Y-85147547D01*
X99370924Y-85119304D01*
X99370924Y-85086693D01*
X99387230Y-85058451D01*
X99531731Y-84913952D01*
X99576278Y-84895500D01*
X99649746Y-84895500D01*
X99649748Y-84895500D01*
X99708231Y-84883867D01*
X99774552Y-84839552D01*
X99818867Y-84773231D01*
X99830500Y-84714748D01*
X100829500Y-84714748D01*
X100841133Y-84773231D01*
X100885448Y-84839552D01*
X100951769Y-84883867D01*
X101010252Y-84895500D01*
X101026020Y-84895500D01*
X101070568Y-84913952D01*
X101089020Y-84958500D01*
X101089020Y-85140635D01*
X101087679Y-85153565D01*
X101084476Y-85168835D01*
X101088536Y-85201396D01*
X101089020Y-85209190D01*
X101089020Y-85212561D01*
X101092392Y-85232774D01*
X101092767Y-85235347D01*
X101099115Y-85286270D01*
X101102776Y-85297697D01*
X101127196Y-85342820D01*
X101128388Y-85345136D01*
X101150921Y-85391231D01*
X101158097Y-85400852D01*
X101159101Y-85401776D01*
X101159102Y-85401778D01*
X101176133Y-85417456D01*
X101195837Y-85435596D01*
X101197716Y-85437398D01*
X101239146Y-85478828D01*
X101254255Y-85503125D01*
X101257059Y-85531599D01*
X101248317Y-85597999D01*
X101268956Y-85754762D01*
X101329463Y-85900840D01*
X101329464Y-85900841D01*
X101425718Y-86026282D01*
X101551159Y-86122536D01*
X101697238Y-86183044D01*
X101854000Y-86203682D01*
X102010762Y-86183044D01*
X102156841Y-86122536D01*
X102201173Y-86088518D01*
X102239525Y-86075500D01*
X102343778Y-86075500D01*
X102370402Y-86081402D01*
X102414513Y-86101972D01*
X102464099Y-86108500D01*
X102823900Y-86108499D01*
X102823902Y-86108499D01*
X102873487Y-86101972D01*
X102982314Y-86051225D01*
X102982314Y-86051224D01*
X102982316Y-86051224D01*
X103067224Y-85966316D01*
X103117972Y-85857487D01*
X103124500Y-85807901D01*
X103124499Y-85388100D01*
X103124386Y-85387244D01*
X103117972Y-85338512D01*
X103067225Y-85229685D01*
X102982314Y-85144774D01*
X102873488Y-85094028D01*
X102823901Y-85087500D01*
X102464097Y-85087500D01*
X102414515Y-85094027D01*
X102305556Y-85144835D01*
X102272072Y-85150363D01*
X102240579Y-85137718D01*
X102156840Y-85073463D01*
X102010762Y-85012956D01*
X101845777Y-84991235D01*
X101846067Y-84989028D01*
X101826394Y-84986000D01*
X101799886Y-84962753D01*
X101790020Y-84928903D01*
X101790020Y-84772400D01*
X101791361Y-84759470D01*
X101793611Y-84748740D01*
X101794562Y-84744205D01*
X101794366Y-84742635D01*
X101790504Y-84711649D01*
X101790020Y-84703856D01*
X101790020Y-84700483D01*
X101790020Y-84700480D01*
X101786636Y-84680208D01*
X101786266Y-84677657D01*
X101786019Y-84675676D01*
X101780093Y-84628127D01*
X101780092Y-84628125D01*
X101779923Y-84626766D01*
X101776267Y-84615351D01*
X101775612Y-84614141D01*
X101775612Y-84614139D01*
X101751823Y-84570182D01*
X101750668Y-84567937D01*
X101736899Y-84539772D01*
X101730500Y-84512107D01*
X101730500Y-84483500D01*
X101748952Y-84438952D01*
X101793500Y-84420500D01*
X102301381Y-84420500D01*
X102336382Y-84431117D01*
X102359585Y-84459390D01*
X102375216Y-84497126D01*
X102471470Y-84622567D01*
X102596911Y-84718821D01*
X102742990Y-84779329D01*
X102899752Y-84799967D01*
X103056514Y-84779329D01*
X103202593Y-84718821D01*
X103328034Y-84622567D01*
X103424288Y-84497126D01*
X103484796Y-84351047D01*
X103505434Y-84194285D01*
X103484796Y-84037523D01*
X103424288Y-83891444D01*
X103393907Y-83851851D01*
X103381129Y-83808009D01*
X103401327Y-83767052D01*
X103443889Y-83750500D01*
X104778746Y-83750500D01*
X104778748Y-83750500D01*
X104837231Y-83738867D01*
X104903552Y-83694552D01*
X104947867Y-83628231D01*
X104959500Y-83569748D01*
X104959500Y-81530252D01*
X104947867Y-81471769D01*
X104903552Y-81405448D01*
X104837231Y-81361133D01*
X104778748Y-81349500D01*
X102739252Y-81349500D01*
X102700263Y-81357255D01*
X102680768Y-81361133D01*
X102614448Y-81405448D01*
X102570133Y-81471768D01*
X102558500Y-81530254D01*
X102558500Y-82974722D01*
X102540048Y-83019270D01*
X102358270Y-83201048D01*
X102313722Y-83219500D01*
X101250960Y-83219500D01*
X101207789Y-83226703D01*
X101164617Y-83233908D01*
X101159077Y-83236907D01*
X101129093Y-83244500D01*
X101010252Y-83244500D01*
X100971263Y-83252255D01*
X100951768Y-83256133D01*
X100885448Y-83300448D01*
X100841133Y-83366768D01*
X100841132Y-83366769D01*
X100841133Y-83366769D01*
X100829500Y-83425252D01*
X100829500Y-83714748D01*
X100834298Y-83738867D01*
X100841133Y-83773232D01*
X100848995Y-83784998D01*
X100859613Y-83819998D01*
X100848997Y-83854998D01*
X100841133Y-83866767D01*
X100839361Y-83875676D01*
X100829500Y-83925252D01*
X100829500Y-84214748D01*
X100830734Y-84220951D01*
X100841133Y-84273232D01*
X100848996Y-84285000D01*
X100859613Y-84320000D01*
X100848996Y-84355000D01*
X100841133Y-84366767D01*
X100836479Y-84390162D01*
X100829500Y-84425252D01*
X100829500Y-84714748D01*
X99830500Y-84714748D01*
X99830500Y-84425252D01*
X99818867Y-84366769D01*
X99811005Y-84355003D01*
X99800386Y-84320000D01*
X99811005Y-84284997D01*
X99811231Y-84284657D01*
X99818867Y-84273231D01*
X99830500Y-84214748D01*
X99830500Y-83925252D01*
X99818867Y-83866769D01*
X99811005Y-83855003D01*
X99800386Y-83820000D01*
X99811005Y-83784997D01*
X99812081Y-83783387D01*
X99818867Y-83773231D01*
X99830500Y-83714748D01*
X99830500Y-83425252D01*
X99818867Y-83366769D01*
X99811005Y-83355003D01*
X99800386Y-83320000D01*
X99811005Y-83284997D01*
X99811231Y-83284657D01*
X99818867Y-83273231D01*
X99830500Y-83214748D01*
X99830500Y-82925252D01*
X99818867Y-82866769D01*
X99774552Y-82800448D01*
X99708231Y-82756133D01*
X99649748Y-82744500D01*
X99110252Y-82744500D01*
X99110250Y-82744500D01*
X99051768Y-82756132D01*
X99049882Y-82757393D01*
X99017796Y-82767940D01*
X98987607Y-82769335D01*
X98985507Y-82769433D01*
X98982599Y-82769500D01*
X98963144Y-82769500D01*
X98960569Y-82769981D01*
X98951914Y-82770985D01*
X98921001Y-82772414D01*
X98908187Y-82778072D01*
X98894325Y-82782364D01*
X98880563Y-82784937D01*
X98854252Y-82801227D01*
X98846540Y-82805292D01*
X98818229Y-82817793D01*
X98812254Y-82823768D01*
X98808325Y-82827696D01*
X98796951Y-82836707D01*
X98785042Y-82844081D01*
X98766397Y-82868770D01*
X98760671Y-82875350D01*
X98485438Y-83150583D01*
X98473413Y-83159235D01*
X98439574Y-83196353D01*
X98437568Y-83198453D01*
X98423824Y-83212197D01*
X98422342Y-83214361D01*
X98416937Y-83221183D01*
X98388394Y-83252496D01*
X98385106Y-83257541D01*
X98145048Y-83497600D01*
X98112791Y-83514841D01*
X98076391Y-83511256D01*
X98048117Y-83488053D01*
X98037500Y-83453052D01*
X98037500Y-82362948D01*
X98039885Y-82348325D01*
X98039772Y-82345891D01*
X98039773Y-82345890D01*
X98037567Y-82298169D01*
X98037500Y-82295260D01*
X98037500Y-82275814D01*
X98037500Y-82275810D01*
X98037018Y-82273235D01*
X98036013Y-82264580D01*
X98034585Y-82233663D01*
X98028925Y-82220844D01*
X98024633Y-82206982D01*
X98022061Y-82193221D01*
X98005769Y-82166909D01*
X98001711Y-82159211D01*
X97989206Y-82130889D01*
X97979300Y-82120983D01*
X97970292Y-82109611D01*
X97962919Y-82097702D01*
X97962917Y-82097700D01*
X97938229Y-82079057D01*
X97931647Y-82073330D01*
X97582883Y-81724566D01*
X97565388Y-81690958D01*
X97570334Y-81653393D01*
X97574948Y-81643500D01*
X97605903Y-81577115D01*
X97639740Y-81545192D01*
X97686260Y-81545192D01*
X97720096Y-81577114D01*
X97755666Y-81653393D01*
X97758935Y-81660404D01*
X97842597Y-81744066D01*
X97937805Y-81788462D01*
X97949827Y-81794068D01*
X97998684Y-81800500D01*
X98347316Y-81800500D01*
X98396173Y-81794068D01*
X98503404Y-81744065D01*
X98587065Y-81660404D01*
X98607363Y-81616874D01*
X98630610Y-81590367D01*
X98664460Y-81580500D01*
X98714500Y-81580500D01*
X98759048Y-81598952D01*
X98777500Y-81643500D01*
X98777500Y-81823248D01*
X98793048Y-81921419D01*
X98843876Y-82021173D01*
X98853342Y-82039751D01*
X98947249Y-82133658D01*
X99047342Y-82184658D01*
X99065580Y-82193951D01*
X99163752Y-82209500D01*
X99163754Y-82209500D01*
X99667246Y-82209500D01*
X99667248Y-82209500D01*
X99736812Y-82198482D01*
X99765420Y-82193951D01*
X99883751Y-82133658D01*
X99977658Y-82039751D01*
X100037951Y-81921420D01*
X100053500Y-81823248D01*
X100352500Y-81823248D01*
X100368048Y-81921419D01*
X100418876Y-82021173D01*
X100428342Y-82039751D01*
X100522249Y-82133658D01*
X100545671Y-82145592D01*
X100649471Y-82198482D01*
X100649149Y-82199113D01*
X100676399Y-82213961D01*
X100692386Y-82253062D01*
X100692914Y-82264492D01*
X100698570Y-82277301D01*
X100702865Y-82291168D01*
X100705439Y-82304934D01*
X100721722Y-82331233D01*
X100725789Y-82338948D01*
X100738292Y-82367263D01*
X100748195Y-82377166D01*
X100757210Y-82388548D01*
X100764581Y-82400452D01*
X100789268Y-82419095D01*
X100795851Y-82424822D01*
X100802699Y-82431670D01*
X100820375Y-82466362D01*
X100833353Y-82548303D01*
X100855099Y-82590981D01*
X100890950Y-82661342D01*
X100980658Y-82751050D01*
X101093696Y-82808646D01*
X101219000Y-82828492D01*
X101344304Y-82808646D01*
X101457342Y-82751050D01*
X101547050Y-82661342D01*
X101604646Y-82548304D01*
X101624492Y-82423000D01*
X101604646Y-82297696D01*
X101547050Y-82184658D01*
X101521945Y-82159553D01*
X101505642Y-82131313D01*
X101505642Y-82098702D01*
X101521947Y-82070461D01*
X101552658Y-82039751D01*
X101612951Y-81921420D01*
X101628500Y-81823246D01*
X101628500Y-81244754D01*
X101623592Y-81213768D01*
X101612951Y-81146580D01*
X101592059Y-81105578D01*
X101552658Y-81028249D01*
X101458751Y-80934342D01*
X101415992Y-80912555D01*
X101340419Y-80874048D01*
X101242248Y-80858500D01*
X101242246Y-80858500D01*
X100738754Y-80858500D01*
X100738752Y-80858500D01*
X100640580Y-80874048D01*
X100522250Y-80934341D01*
X100428341Y-81028250D01*
X100368048Y-81146580D01*
X100352500Y-81244752D01*
X100352500Y-81823248D01*
X100053500Y-81823248D01*
X100053500Y-81823246D01*
X100053500Y-81244754D01*
X100048592Y-81213768D01*
X100037951Y-81146580D01*
X100017059Y-81105578D01*
X99977658Y-81028249D01*
X99883751Y-80934342D01*
X99840992Y-80912555D01*
X99765419Y-80874048D01*
X99667248Y-80858500D01*
X99667246Y-80858500D01*
X99163754Y-80858500D01*
X99163752Y-80858500D01*
X99065580Y-80874048D01*
X98947247Y-80934342D01*
X98920542Y-80961048D01*
X98875995Y-80979500D01*
X98664460Y-80979500D01*
X98630610Y-80969633D01*
X98607363Y-80943125D01*
X98587065Y-80899596D01*
X98503404Y-80815935D01*
X98503402Y-80815933D01*
X98395455Y-80765597D01*
X98365577Y-80736364D01*
X98360573Y-80694864D01*
X98382647Y-80659367D01*
X98422080Y-80645500D01*
X105346500Y-80645500D01*
X105391048Y-80663952D01*
G37*
%TD.AperFunction*%
%TA.AperFunction,Conductor*%
G36*
X96943353Y-80659367D02*
G01*
X96965427Y-80694864D01*
X96960423Y-80736364D01*
X96930545Y-80765597D01*
X96822597Y-80815933D01*
X96738933Y-80899597D01*
X96688932Y-81006825D01*
X96682500Y-81055684D01*
X96682500Y-81408772D01*
X96664048Y-81453320D01*
X96619500Y-81471772D01*
X96574952Y-81453320D01*
X96064862Y-80943230D01*
X96056212Y-80931206D01*
X96054408Y-80929561D01*
X96019091Y-80897365D01*
X96017009Y-80895376D01*
X96003248Y-80881616D01*
X96003247Y-80881615D01*
X96001091Y-80880138D01*
X95994262Y-80874730D01*
X95971383Y-80853873D01*
X95958318Y-80848811D01*
X95945482Y-80842045D01*
X95933930Y-80834132D01*
X95903816Y-80827049D01*
X95895485Y-80824469D01*
X95866624Y-80813289D01*
X95866623Y-80813289D01*
X95852620Y-80813289D01*
X95838195Y-80811615D01*
X95824569Y-80808410D01*
X95793924Y-80812685D01*
X95785220Y-80813289D01*
X92935504Y-80813289D01*
X92920881Y-80810903D01*
X92870725Y-80813222D01*
X92867816Y-80813289D01*
X92848361Y-80813289D01*
X92845786Y-80813770D01*
X92837131Y-80814774D01*
X92806219Y-80816203D01*
X92793405Y-80821861D01*
X92779542Y-80826154D01*
X92765775Y-80828728D01*
X92739465Y-80845017D01*
X92731752Y-80849083D01*
X92703443Y-80861583D01*
X92693541Y-80871485D01*
X92682165Y-80880496D01*
X92670259Y-80887868D01*
X92651617Y-80912555D01*
X92645890Y-80919137D01*
X92471752Y-81093275D01*
X92433378Y-81111424D01*
X92407642Y-81104976D01*
X92407523Y-81105578D01*
X92395231Y-81103133D01*
X92336748Y-81091500D01*
X90797252Y-81091500D01*
X90758263Y-81099255D01*
X90738768Y-81103133D01*
X90672448Y-81147448D01*
X90628133Y-81213768D01*
X90628132Y-81213769D01*
X90628133Y-81213769D01*
X90616500Y-81272252D01*
X90616500Y-82811748D01*
X90628133Y-82870231D01*
X90672448Y-82936552D01*
X90738769Y-82980867D01*
X90797252Y-82992500D01*
X92071433Y-82992500D01*
X92106434Y-83003117D01*
X92129637Y-83031391D01*
X92133222Y-83067791D01*
X92115981Y-83100048D01*
X91904438Y-83311589D01*
X91892413Y-83320241D01*
X91858574Y-83357359D01*
X91856568Y-83359459D01*
X91842824Y-83373203D01*
X91841342Y-83375367D01*
X91835937Y-83382189D01*
X91815084Y-83405065D01*
X91810024Y-83418127D01*
X91803257Y-83430965D01*
X91795344Y-83442518D01*
X91788260Y-83472635D01*
X91785680Y-83480966D01*
X91774500Y-83509827D01*
X91774500Y-83523830D01*
X91772826Y-83538255D01*
X91769620Y-83551881D01*
X91770725Y-83559797D01*
X91765562Y-83594832D01*
X91742315Y-83621547D01*
X91708329Y-83631500D01*
X90797252Y-83631500D01*
X90759607Y-83638988D01*
X90738768Y-83643133D01*
X90672448Y-83687448D01*
X90628133Y-83753768D01*
X90625491Y-83767052D01*
X90616500Y-83812252D01*
X90616500Y-85351748D01*
X90628133Y-85410231D01*
X90672448Y-85476552D01*
X90738769Y-85520867D01*
X90797252Y-85532500D01*
X92336746Y-85532500D01*
X92336748Y-85532500D01*
X92395231Y-85520867D01*
X92461552Y-85476552D01*
X92505867Y-85410231D01*
X92517500Y-85351748D01*
X92517500Y-83812252D01*
X92505867Y-83753769D01*
X92505866Y-83753768D01*
X92505866Y-83753766D01*
X92457020Y-83680664D01*
X92446705Y-83639488D01*
X92464853Y-83601116D01*
X92679512Y-83386457D01*
X92720762Y-83368092D01*
X92763706Y-83382046D01*
X92786283Y-83421150D01*
X92804553Y-83536503D01*
X92847886Y-83621547D01*
X92862150Y-83649542D01*
X92951858Y-83739250D01*
X93064896Y-83796846D01*
X93190200Y-83816692D01*
X93315504Y-83796846D01*
X93428542Y-83739250D01*
X93428953Y-83738838D01*
X93431069Y-83737962D01*
X93437432Y-83734720D01*
X93437687Y-83735220D01*
X93473500Y-83720387D01*
X93518048Y-83738839D01*
X93536500Y-83783387D01*
X93536500Y-83875676D01*
X93551033Y-83948739D01*
X93606398Y-84031601D01*
X93689260Y-84086966D01*
X93762324Y-84101500D01*
X93762326Y-84101500D01*
X94511674Y-84101500D01*
X94511676Y-84101500D01*
X94560384Y-84091810D01*
X94584740Y-84086966D01*
X94667601Y-84031601D01*
X94722966Y-83948740D01*
X94737500Y-83875674D01*
X94737500Y-83726326D01*
X94735196Y-83714745D01*
X94722966Y-83653260D01*
X94713431Y-83638989D01*
X94702848Y-83606048D01*
X94711256Y-83572487D01*
X94714137Y-83567498D01*
X94725868Y-83539176D01*
X94725868Y-83539175D01*
X94729988Y-83529228D01*
X94745548Y-83451000D01*
X94745010Y-83448294D01*
X94743799Y-83436004D01*
X94743799Y-83420799D01*
X94762251Y-83376251D01*
X94806798Y-83357799D01*
X94814398Y-83357799D01*
X94822003Y-83357799D01*
X94834294Y-83359010D01*
X94835417Y-83359233D01*
X94837000Y-83359548D01*
X94915229Y-83343988D01*
X94953498Y-83328137D01*
X94958487Y-83325256D01*
X94992048Y-83316848D01*
X95024989Y-83327431D01*
X95039260Y-83336966D01*
X95112324Y-83351500D01*
X95112326Y-83351500D01*
X95261674Y-83351500D01*
X95261676Y-83351500D01*
X95334738Y-83336967D01*
X95334739Y-83336966D01*
X95334740Y-83336966D01*
X95351997Y-83325434D01*
X95386997Y-83314816D01*
X95421998Y-83325432D01*
X95439260Y-83336966D01*
X95439262Y-83336967D01*
X95512324Y-83351500D01*
X95512326Y-83351500D01*
X95661674Y-83351500D01*
X95661676Y-83351500D01*
X95734738Y-83336967D01*
X95734739Y-83336966D01*
X95734740Y-83336966D01*
X95751997Y-83325434D01*
X95786997Y-83314816D01*
X95821998Y-83325432D01*
X95839260Y-83336966D01*
X95839262Y-83336967D01*
X95912324Y-83351500D01*
X95912326Y-83351500D01*
X96061674Y-83351500D01*
X96061676Y-83351500D01*
X96134738Y-83336967D01*
X96134739Y-83336966D01*
X96134740Y-83336966D01*
X96149008Y-83327432D01*
X96181947Y-83316848D01*
X96215510Y-83325255D01*
X96220501Y-83328137D01*
X96241818Y-83336966D01*
X96258771Y-83343988D01*
X96337000Y-83359548D01*
X96339699Y-83359010D01*
X96351991Y-83357800D01*
X96367200Y-83357800D01*
X96411748Y-83376252D01*
X96430200Y-83420800D01*
X96430200Y-83436006D01*
X96428990Y-83448294D01*
X96428452Y-83451000D01*
X96444012Y-83529228D01*
X96444012Y-83529229D01*
X96444013Y-83529231D01*
X96459862Y-83567497D01*
X96462744Y-83572488D01*
X96471151Y-83606048D01*
X96460569Y-83638988D01*
X96451033Y-83653260D01*
X96436500Y-83726324D01*
X96436500Y-83875676D01*
X96451033Y-83948739D01*
X96462566Y-83966000D01*
X96473183Y-84001000D01*
X96462566Y-84036000D01*
X96451033Y-84053260D01*
X96436500Y-84126324D01*
X96436500Y-84275676D01*
X96451033Y-84348739D01*
X96462566Y-84366000D01*
X96473183Y-84401000D01*
X96462566Y-84436000D01*
X96451033Y-84453260D01*
X96436500Y-84526324D01*
X96436500Y-84675676D01*
X96451032Y-84748737D01*
X96451033Y-84748739D01*
X96451034Y-84748740D01*
X96460568Y-84763009D01*
X96471151Y-84795945D01*
X96462747Y-84829505D01*
X96459863Y-84834499D01*
X96444012Y-84872769D01*
X96428452Y-84951001D01*
X96428990Y-84953706D01*
X96430200Y-84965994D01*
X96430200Y-84981199D01*
X96411748Y-85025747D01*
X96367200Y-85044199D01*
X96351988Y-85044199D01*
X96339701Y-85042989D01*
X96337000Y-85042452D01*
X96258772Y-85058012D01*
X96258771Y-85058012D01*
X96258768Y-85058013D01*
X96220499Y-85073863D01*
X96215505Y-85076747D01*
X96181945Y-85085151D01*
X96149009Y-85074568D01*
X96134740Y-85065034D01*
X96134739Y-85065033D01*
X96134737Y-85065032D01*
X96061676Y-85050500D01*
X96061674Y-85050500D01*
X95912326Y-85050500D01*
X95912324Y-85050500D01*
X95839260Y-85065033D01*
X95821998Y-85076567D01*
X95786998Y-85087183D01*
X95751998Y-85076565D01*
X95734739Y-85065033D01*
X95661676Y-85050500D01*
X95661674Y-85050500D01*
X95512326Y-85050500D01*
X95512324Y-85050500D01*
X95439260Y-85065033D01*
X95421998Y-85076567D01*
X95386998Y-85087183D01*
X95351998Y-85076565D01*
X95334739Y-85065033D01*
X95261676Y-85050500D01*
X95261674Y-85050500D01*
X95112326Y-85050500D01*
X95112324Y-85050500D01*
X95039260Y-85065033D01*
X95024988Y-85074569D01*
X94992048Y-85085151D01*
X94958488Y-85076744D01*
X94958181Y-85076567D01*
X94954721Y-85074569D01*
X94953497Y-85073862D01*
X94915231Y-85058013D01*
X94915229Y-85058012D01*
X94915228Y-85058012D01*
X94876114Y-85050232D01*
X94836997Y-85042451D01*
X94834285Y-85042991D01*
X94822001Y-85044200D01*
X94806799Y-85044200D01*
X94762251Y-85025748D01*
X94743799Y-84981200D01*
X94743799Y-84965996D01*
X94745010Y-84953704D01*
X94745307Y-84952210D01*
X94745548Y-84951000D01*
X94729988Y-84872771D01*
X94721603Y-84852526D01*
X94714137Y-84834501D01*
X94711255Y-84829510D01*
X94702848Y-84795947D01*
X94713432Y-84763008D01*
X94722966Y-84748740D01*
X94722966Y-84748739D01*
X94722967Y-84748738D01*
X94737500Y-84675676D01*
X94737500Y-84526324D01*
X94722966Y-84453260D01*
X94667601Y-84370398D01*
X94584739Y-84315033D01*
X94511676Y-84300500D01*
X94511674Y-84300500D01*
X94193173Y-84300500D01*
X93639293Y-84300500D01*
X93624670Y-84298114D01*
X93574514Y-84300433D01*
X93571605Y-84300500D01*
X93552150Y-84300500D01*
X93549575Y-84300981D01*
X93540920Y-84301985D01*
X93510007Y-84303414D01*
X93497193Y-84309072D01*
X93483331Y-84313364D01*
X93469569Y-84315937D01*
X93443258Y-84332227D01*
X93435546Y-84336292D01*
X93407235Y-84348793D01*
X93401260Y-84354768D01*
X93397331Y-84358696D01*
X93385957Y-84367707D01*
X93374048Y-84375081D01*
X93355403Y-84399770D01*
X93349677Y-84406350D01*
X93174438Y-84581589D01*
X93162413Y-84590241D01*
X93128574Y-84627359D01*
X93126568Y-84629459D01*
X93112824Y-84643203D01*
X93111342Y-84645367D01*
X93105937Y-84652189D01*
X93085084Y-84675065D01*
X93080024Y-84688127D01*
X93073257Y-84700965D01*
X93065344Y-84712518D01*
X93058260Y-84742635D01*
X93055680Y-84750966D01*
X93044500Y-84779827D01*
X93044500Y-84793830D01*
X93042826Y-84808255D01*
X93040190Y-84819464D01*
X93039621Y-84821881D01*
X93041382Y-84834502D01*
X93043896Y-84852526D01*
X93044500Y-84861230D01*
X93044500Y-86674335D01*
X93028866Y-86715874D01*
X92989722Y-86736796D01*
X92946499Y-86726717D01*
X92899231Y-86695133D01*
X92840748Y-86683500D01*
X90801252Y-86683500D01*
X90762263Y-86691255D01*
X90742768Y-86695133D01*
X90676448Y-86739448D01*
X90632133Y-86805768D01*
X90632132Y-86805769D01*
X90632133Y-86805769D01*
X90620500Y-86864252D01*
X90620500Y-88903748D01*
X90632133Y-88962231D01*
X90676448Y-89028552D01*
X90742769Y-89072867D01*
X90801252Y-89084500D01*
X90807500Y-89084500D01*
X90852048Y-89102952D01*
X90870500Y-89147500D01*
X90870500Y-89795500D01*
X90852048Y-89840048D01*
X90807500Y-89858500D01*
X90801252Y-89858500D01*
X90762263Y-89866255D01*
X90742768Y-89870133D01*
X90676448Y-89914448D01*
X90632133Y-89980768D01*
X90630217Y-89990402D01*
X90620500Y-90039252D01*
X90620500Y-92078748D01*
X90632133Y-92137231D01*
X90676448Y-92203552D01*
X90742769Y-92247867D01*
X90801252Y-92259500D01*
X92654169Y-92259500D01*
X92698717Y-92277952D01*
X92927631Y-92506866D01*
X92933064Y-92513062D01*
X92954718Y-92541282D01*
X93026704Y-92596519D01*
X93048639Y-92628212D01*
X93048009Y-92666751D01*
X93025048Y-92697709D01*
X92988352Y-92709500D01*
X90233500Y-92709500D01*
X90188952Y-92691048D01*
X90170500Y-92646500D01*
X90170500Y-80708500D01*
X90188952Y-80663952D01*
X90233500Y-80645500D01*
X96903920Y-80645500D01*
X96943353Y-80659367D01*
G37*
%TD.AperFunction*%
%TA.AperFunction,Conductor*%
G36*
X100560196Y-89573852D02*
G01*
X100581118Y-89612995D01*
X100588027Y-89665487D01*
X100638774Y-89774314D01*
X100723685Y-89859225D01*
X100777459Y-89884300D01*
X100832513Y-89909972D01*
X100882099Y-89916500D01*
X101051075Y-89916499D01*
X101087680Y-89928225D01*
X101107366Y-89942279D01*
X101109456Y-89943837D01*
X101149954Y-89975358D01*
X101160619Y-89980847D01*
X101161932Y-89981238D01*
X101161934Y-89981239D01*
X101192720Y-89990404D01*
X101209787Y-89995485D01*
X101212240Y-89996270D01*
X101259512Y-90012500D01*
X101259513Y-90012500D01*
X101260806Y-90012944D01*
X101272678Y-90014674D01*
X101323925Y-90012554D01*
X101326529Y-90012500D01*
X101440500Y-90012500D01*
X101485048Y-90030952D01*
X101503500Y-90075500D01*
X101503500Y-90633722D01*
X101498704Y-90657831D01*
X101485048Y-90678270D01*
X100957171Y-91206145D01*
X100932874Y-91221253D01*
X100904401Y-91224058D01*
X100838001Y-91215317D01*
X100681237Y-91235956D01*
X100535159Y-91296463D01*
X100409718Y-91392717D01*
X100388057Y-91420945D01*
X100382625Y-91427138D01*
X100315718Y-91494047D01*
X100295279Y-91507704D01*
X100271170Y-91512500D01*
X99219500Y-91512500D01*
X99174952Y-91494048D01*
X99156500Y-91449500D01*
X99156500Y-91148144D01*
X99166368Y-91114292D01*
X99179450Y-91102820D01*
X99178549Y-91101919D01*
X99186402Y-91094065D01*
X99186404Y-91094065D01*
X99270065Y-91010404D01*
X99320068Y-90903173D01*
X99326500Y-90854316D01*
X99326500Y-90505684D01*
X99320068Y-90456827D01*
X99314063Y-90443950D01*
X99270066Y-90349597D01*
X99186404Y-90265935D01*
X99186400Y-90265933D01*
X99103114Y-90227096D01*
X99071192Y-90193260D01*
X99071192Y-90146740D01*
X99103114Y-90112903D01*
X99186404Y-90074065D01*
X99270065Y-89990404D01*
X99320068Y-89883173D01*
X99326500Y-89834316D01*
X99326500Y-89667478D01*
X99340367Y-89628045D01*
X99375864Y-89605971D01*
X99417364Y-89610975D01*
X99446597Y-89640853D01*
X99495774Y-89746314D01*
X99580685Y-89831225D01*
X99639177Y-89858500D01*
X99689513Y-89881972D01*
X99739099Y-89888500D01*
X100158900Y-89888499D01*
X100158902Y-89888499D01*
X100208487Y-89881972D01*
X100317314Y-89831225D01*
X100317314Y-89831224D01*
X100317316Y-89831224D01*
X100402224Y-89746316D01*
X100452972Y-89637487D01*
X100456196Y-89612992D01*
X100477118Y-89573851D01*
X100518657Y-89558217D01*
X100560196Y-89573852D01*
G37*
%TD.AperFunction*%
%TA.AperFunction,Conductor*%
G36*
X96159981Y-87694952D02*
G01*
X96455048Y-87990019D01*
X96473500Y-88034567D01*
X96473500Y-89221707D01*
X96471114Y-89236329D01*
X96473433Y-89286486D01*
X96473500Y-89289395D01*
X96473500Y-89308845D01*
X96473980Y-89311414D01*
X96474985Y-89320076D01*
X96476415Y-89350993D01*
X96482070Y-89363801D01*
X96486365Y-89377668D01*
X96488939Y-89391434D01*
X96505222Y-89417733D01*
X96509289Y-89425448D01*
X96521792Y-89453763D01*
X96531695Y-89463666D01*
X96540710Y-89475048D01*
X96548081Y-89486952D01*
X96572768Y-89505595D01*
X96579351Y-89511322D01*
X96773587Y-89705558D01*
X96782244Y-89717589D01*
X96819336Y-89751403D01*
X96821439Y-89753411D01*
X96835201Y-89767173D01*
X96837359Y-89768651D01*
X96844193Y-89774065D01*
X96856468Y-89785254D01*
X96867067Y-89794916D01*
X96878844Y-89799478D01*
X96880126Y-89799975D01*
X96892970Y-89806745D01*
X96904519Y-89814656D01*
X96934651Y-89821743D01*
X96942955Y-89824314D01*
X96971827Y-89835500D01*
X96985830Y-89835500D01*
X97000254Y-89837173D01*
X97013881Y-89840379D01*
X97044526Y-89836103D01*
X97053230Y-89835500D01*
X97173200Y-89835500D01*
X97212407Y-89849187D01*
X97234579Y-89884300D01*
X97230082Y-89925583D01*
X97200869Y-89955098D01*
X97128654Y-89990402D01*
X97113517Y-89997802D01*
X97030802Y-90080517D01*
X96979427Y-90185606D01*
X96969500Y-90253742D01*
X96969500Y-90443950D01*
X96956481Y-90482300D01*
X96948657Y-90492497D01*
X96945462Y-90496661D01*
X96884956Y-90642736D01*
X96869500Y-90760139D01*
X96869500Y-91449500D01*
X96851048Y-91494048D01*
X96806500Y-91512500D01*
X96233500Y-91512500D01*
X96188952Y-91494048D01*
X96170500Y-91449500D01*
X96170500Y-90760139D01*
X96155044Y-90642738D01*
X96094536Y-90496659D01*
X96083518Y-90482300D01*
X96070500Y-90443950D01*
X96070500Y-90253742D01*
X96064054Y-90209500D01*
X96060573Y-90185607D01*
X96009198Y-90080517D01*
X95926483Y-89997802D01*
X95821393Y-89946427D01*
X95753260Y-89936500D01*
X95753258Y-89936500D01*
X95699583Y-89936500D01*
X95657020Y-89919948D01*
X95636822Y-89878988D01*
X95646344Y-89846325D01*
X95644362Y-89845504D01*
X95665316Y-89794916D01*
X95708044Y-89691762D01*
X95723500Y-89574361D01*
X95728682Y-89535000D01*
X95724038Y-89499732D01*
X95723500Y-89491510D01*
X95723500Y-89446322D01*
X95738849Y-89405111D01*
X95777414Y-89383980D01*
X95821393Y-89377573D01*
X95926483Y-89326198D01*
X96009198Y-89243483D01*
X96060573Y-89138393D01*
X96070500Y-89070260D01*
X96070500Y-87978740D01*
X96060573Y-87910607D01*
X96009198Y-87805517D01*
X95987727Y-87784046D01*
X95969276Y-87739500D01*
X95987728Y-87694952D01*
X96032276Y-87676500D01*
X96115433Y-87676500D01*
X96159981Y-87694952D01*
G37*
%TD.AperFunction*%
%TA.AperFunction,Conductor*%
G36*
X93122465Y-87683634D02*
G01*
X93130824Y-87689947D01*
X93143769Y-87699722D01*
X93150351Y-87705449D01*
X93705048Y-88260146D01*
X93723500Y-88304693D01*
X93723500Y-88416902D01*
X93730027Y-88466487D01*
X93780774Y-88575314D01*
X93865685Y-88660225D01*
X93962311Y-88705282D01*
X93974513Y-88710972D01*
X94024099Y-88717500D01*
X94136304Y-88717499D01*
X94160414Y-88722294D01*
X94180853Y-88735951D01*
X94321960Y-88877058D01*
X94330617Y-88889089D01*
X94367709Y-88922903D01*
X94369812Y-88924911D01*
X94383574Y-88938673D01*
X94385732Y-88940151D01*
X94392566Y-88945565D01*
X94410849Y-88962231D01*
X94415440Y-88966416D01*
X94427217Y-88970978D01*
X94428499Y-88971475D01*
X94441343Y-88978245D01*
X94452892Y-88986156D01*
X94460072Y-88987844D01*
X94473924Y-88991103D01*
X94508885Y-89013312D01*
X94522500Y-89052429D01*
X94522500Y-89491510D01*
X94521961Y-89499734D01*
X94517317Y-89535000D01*
X94522500Y-89574360D01*
X94522500Y-89574361D01*
X94537956Y-89691763D01*
X94598463Y-89837840D01*
X94600411Y-89840379D01*
X94694718Y-89963282D01*
X94793727Y-90039254D01*
X94820159Y-90059536D01*
X94966236Y-90120044D01*
X94996805Y-90124068D01*
X95023340Y-90127561D01*
X95053698Y-90140217D01*
X95073541Y-90166448D01*
X95077460Y-90199105D01*
X95069500Y-90253742D01*
X95069500Y-90443950D01*
X95056481Y-90482300D01*
X95048657Y-90492497D01*
X95045462Y-90496661D01*
X94984956Y-90642736D01*
X94969500Y-90760139D01*
X94969500Y-91449500D01*
X94951048Y-91494048D01*
X94906500Y-91512500D01*
X94807500Y-91512500D01*
X94762952Y-91494048D01*
X94744500Y-91449500D01*
X94744499Y-91232097D01*
X94737972Y-91182512D01*
X94687225Y-91073685D01*
X94602314Y-90988774D01*
X94493488Y-90938028D01*
X94443901Y-90931500D01*
X94024097Y-90931500D01*
X93974512Y-90938027D01*
X93865685Y-90988774D01*
X93780774Y-91073685D01*
X93730028Y-91182511D01*
X93723500Y-91232098D01*
X93723501Y-91449500D01*
X93715061Y-91481000D01*
X93692001Y-91504060D01*
X93660501Y-91512500D01*
X93657831Y-91512500D01*
X93613283Y-91494048D01*
X93039952Y-90920717D01*
X93021500Y-90876169D01*
X93021500Y-90039254D01*
X93016611Y-90014674D01*
X93009867Y-89980769D01*
X92965552Y-89914448D01*
X92899231Y-89870133D01*
X92840748Y-89858500D01*
X92840746Y-89858500D01*
X92834500Y-89858500D01*
X92789952Y-89840048D01*
X92771500Y-89795500D01*
X92771500Y-89147500D01*
X92789952Y-89102952D01*
X92834500Y-89084500D01*
X92840746Y-89084500D01*
X92840748Y-89084500D01*
X92899231Y-89072867D01*
X92965552Y-89028552D01*
X93009867Y-88962231D01*
X93021500Y-88903748D01*
X93021500Y-87733910D01*
X93037942Y-87691467D01*
X93078687Y-87671179D01*
X93122465Y-87683634D01*
G37*
%TD.AperFunction*%
%TA.AperFunction,Conductor*%
G36*
X99627016Y-87173776D02*
G01*
X99647455Y-87187432D01*
X100002016Y-87541994D01*
X100020165Y-87580367D01*
X100009851Y-87621543D01*
X99975756Y-87646829D01*
X99933359Y-87644746D01*
X99799539Y-87589316D01*
X99642777Y-87568677D01*
X99486014Y-87589316D01*
X99339936Y-87649823D01*
X99214495Y-87746078D01*
X99118240Y-87871519D01*
X99057733Y-88017596D01*
X99057732Y-88017598D01*
X99057733Y-88017598D01*
X99043892Y-88122725D01*
X99022972Y-88161866D01*
X98981433Y-88177500D01*
X98581684Y-88177500D01*
X98532825Y-88183932D01*
X98425597Y-88233933D01*
X98341933Y-88317597D01*
X98291932Y-88424825D01*
X98285500Y-88473684D01*
X98285500Y-88822316D01*
X98291932Y-88871174D01*
X98341933Y-88978402D01*
X98341935Y-88978404D01*
X98425596Y-89062065D01*
X98469125Y-89082363D01*
X98495633Y-89105610D01*
X98505500Y-89139460D01*
X98505500Y-89168540D01*
X98495633Y-89202390D01*
X98469125Y-89225636D01*
X98462773Y-89228598D01*
X98436152Y-89234500D01*
X98014513Y-89234500D01*
X97975136Y-89220678D01*
X97953038Y-89185277D01*
X97957913Y-89143832D01*
X97960573Y-89138393D01*
X97970500Y-89070260D01*
X97970500Y-87978740D01*
X97960573Y-87910607D01*
X97909198Y-87805517D01*
X97826483Y-87722802D01*
X97721393Y-87671427D01*
X97653260Y-87661500D01*
X97286740Y-87661500D01*
X97243906Y-87667741D01*
X97218606Y-87671427D01*
X97104072Y-87727419D01*
X97102197Y-87723585D01*
X97075625Y-87734577D01*
X97031099Y-87716126D01*
X97016304Y-87701332D01*
X97007291Y-87689954D01*
X96999919Y-87678048D01*
X96975232Y-87659405D01*
X96968650Y-87653678D01*
X96797034Y-87482062D01*
X96591498Y-87276527D01*
X96574258Y-87244271D01*
X96577843Y-87207871D01*
X96601046Y-87179597D01*
X96636047Y-87168980D01*
X99602907Y-87168980D01*
X99627016Y-87173776D01*
G37*
%TD.AperFunction*%
%TA.AperFunction,Conductor*%
G36*
X93785790Y-85309307D02*
G01*
X93822200Y-85331130D01*
X93836500Y-85371097D01*
X93836500Y-86188453D01*
X93834114Y-86203075D01*
X93836433Y-86253232D01*
X93836500Y-86256141D01*
X93836500Y-86275591D01*
X93836980Y-86278160D01*
X93837985Y-86286822D01*
X93839415Y-86317739D01*
X93845070Y-86330547D01*
X93849365Y-86344414D01*
X93851939Y-86358180D01*
X93868222Y-86384479D01*
X93872289Y-86392194D01*
X93884792Y-86420509D01*
X93894695Y-86430412D01*
X93903710Y-86441794D01*
X93911081Y-86453698D01*
X93935768Y-86472341D01*
X93942351Y-86478068D01*
X95010841Y-87546558D01*
X95019498Y-87558589D01*
X95056590Y-87592403D01*
X95058693Y-87594411D01*
X95072455Y-87608173D01*
X95074613Y-87609651D01*
X95081447Y-87615065D01*
X95088554Y-87621543D01*
X95104321Y-87635916D01*
X95116098Y-87640478D01*
X95117380Y-87640975D01*
X95130224Y-87647745D01*
X95141773Y-87655656D01*
X95143094Y-87655966D01*
X95144115Y-87656207D01*
X95180544Y-87680346D01*
X95192503Y-87722379D01*
X95174238Y-87762080D01*
X95130802Y-87805516D01*
X95086524Y-87896087D01*
X95068280Y-87918396D01*
X95040721Y-87939544D01*
X95040714Y-87939550D01*
X95040715Y-87939550D01*
X94852045Y-88128218D01*
X94807499Y-88146670D01*
X94762951Y-88128218D01*
X94744499Y-88083670D01*
X94744499Y-88057098D01*
X94737972Y-88007512D01*
X94687225Y-87898685D01*
X94602314Y-87813774D01*
X94493488Y-87763028D01*
X94443901Y-87756500D01*
X94077441Y-87756500D01*
X94032893Y-87738048D01*
X93663952Y-87369108D01*
X93650296Y-87348669D01*
X93645500Y-87324560D01*
X93645500Y-85358168D01*
X93656117Y-85323167D01*
X93684391Y-85299964D01*
X93720787Y-85296378D01*
X93785790Y-85309307D01*
G37*
%TD.AperFunction*%
%TA.AperFunction,Conductor*%
G36*
X98914793Y-84220951D02*
G01*
X98938230Y-84258641D01*
X98941132Y-84273230D01*
X98948996Y-84285000D01*
X98959613Y-84320000D01*
X98948996Y-84355000D01*
X98941133Y-84366767D01*
X98936479Y-84390162D01*
X98929500Y-84425252D01*
X98929500Y-84425254D01*
X98929500Y-84425255D01*
X98929500Y-84498723D01*
X98924704Y-84522832D01*
X98911047Y-84543271D01*
X98717475Y-84736841D01*
X98681153Y-84754754D01*
X98649236Y-84758956D01*
X98503159Y-84819463D01*
X98377718Y-84915718D01*
X98281463Y-85041159D01*
X98220956Y-85187237D01*
X98200317Y-85344000D01*
X98220956Y-85500762D01*
X98281463Y-85646840D01*
X98281464Y-85646841D01*
X98377718Y-85772282D01*
X98503159Y-85868536D01*
X98649238Y-85929044D01*
X98806000Y-85949682D01*
X98962762Y-85929044D01*
X99028392Y-85901858D01*
X99068805Y-85899210D01*
X99102481Y-85921711D01*
X99115500Y-85960062D01*
X99115500Y-86061901D01*
X99120089Y-86096758D01*
X99114725Y-86131606D01*
X99091477Y-86158114D01*
X99057628Y-86167980D01*
X96737512Y-86167980D01*
X96699159Y-86154960D01*
X96676658Y-86121283D01*
X96677942Y-86101707D01*
X96675868Y-86101707D01*
X96675868Y-86101706D01*
X96678962Y-86086146D01*
X96679014Y-86085361D01*
X96678777Y-86085314D01*
X96679135Y-86083511D01*
X96679309Y-86080867D01*
X96679987Y-86079230D01*
X96679986Y-86079230D01*
X96679988Y-86079228D01*
X96695548Y-86001000D01*
X96692637Y-85986369D01*
X96691428Y-85974081D01*
X96691428Y-85395539D01*
X96693575Y-85379232D01*
X96693799Y-85378396D01*
X96693799Y-85370799D01*
X96712251Y-85326251D01*
X96756798Y-85307799D01*
X96764398Y-85307799D01*
X96765233Y-85307575D01*
X96781541Y-85305428D01*
X97360081Y-85305428D01*
X97372369Y-85306637D01*
X97387000Y-85309548D01*
X97465229Y-85293988D01*
X97503498Y-85278137D01*
X97549716Y-85251453D01*
X97587453Y-85213716D01*
X97614137Y-85167498D01*
X97625868Y-85139176D01*
X97625868Y-85139175D01*
X97629988Y-85129228D01*
X97645548Y-85051000D01*
X97642637Y-85036369D01*
X97641428Y-85024081D01*
X97641428Y-84977919D01*
X97642638Y-84965629D01*
X97644056Y-84958500D01*
X97645307Y-84952209D01*
X97667130Y-84915801D01*
X97707097Y-84901500D01*
X97973014Y-84901500D01*
X97987636Y-84903885D01*
X97990070Y-84903772D01*
X97990072Y-84903773D01*
X98037792Y-84901567D01*
X98040702Y-84901500D01*
X98060146Y-84901500D01*
X98060151Y-84901500D01*
X98062726Y-84901018D01*
X98071381Y-84900013D01*
X98102299Y-84898585D01*
X98115116Y-84892925D01*
X98128976Y-84888633D01*
X98142740Y-84886061D01*
X98169045Y-84869773D01*
X98176764Y-84865705D01*
X98196805Y-84856856D01*
X98205072Y-84853206D01*
X98214970Y-84843306D01*
X98226353Y-84834290D01*
X98238259Y-84826919D01*
X98256909Y-84802220D01*
X98262624Y-84795652D01*
X98831894Y-84226383D01*
X98872320Y-84208067D01*
X98914793Y-84220951D01*
G37*
%TD.AperFunction*%
%TD*%
M02*
