%TF.GenerationSoftware,KiCad,Pcbnew,(6.0.5)*%
%TF.CreationDate,2023-01-22T23:41:33+00:00*%
%TF.ProjectId,TinyDrive,54696e79-4472-4697-9665-2e6b69636164,rev?*%
%TF.SameCoordinates,Original*%
%TF.FileFunction,Legend,Bot*%
%TF.FilePolarity,Positive*%
%FSLAX46Y46*%
G04 Gerber Fmt 4.6, Leading zero omitted, Abs format (unit mm)*
G04 Created by KiCad (PCBNEW (6.0.5)) date 2023-01-22 23:41:33*
%MOMM*%
%LPD*%
G01*
G04 APERTURE LIST*
%ADD10C,0.080000*%
%ADD11C,0.150000*%
%ADD12C,0.100000*%
%ADD13C,0.120000*%
%ADD14R,2.000000X2.000000*%
%ADD15C,1.000000*%
%ADD16R,1.500000X1.500000*%
G04 APERTURE END LIST*
D10*
X98990488Y-91982952D02*
X99026202Y-92268666D01*
X99052392Y-92325809D01*
X99095250Y-92363904D01*
X99154773Y-92382952D01*
X99192869Y-92382952D01*
X98659535Y-92382952D02*
X98850011Y-92382952D01*
X98800011Y-91982952D01*
X98292869Y-92344857D02*
X98314297Y-92363904D01*
X98373821Y-92382952D01*
X98411916Y-92382952D01*
X98466678Y-92363904D01*
X98500011Y-92325809D01*
X98514297Y-92287714D01*
X98523821Y-92211523D01*
X98516678Y-92154380D01*
X98488107Y-92078190D01*
X98464297Y-92040095D01*
X98421440Y-92002000D01*
X98361916Y-91982952D01*
X98323821Y-91982952D01*
X98269059Y-92002000D01*
X98252392Y-92021047D01*
X97961916Y-91982952D02*
X97997630Y-92268666D01*
X98023821Y-92325809D01*
X98066678Y-92363904D01*
X98126202Y-92382952D01*
X98164297Y-92382952D01*
X97630964Y-92382952D02*
X97821440Y-92382952D01*
X97771440Y-91982952D01*
X97264297Y-92344857D02*
X97285726Y-92363904D01*
X97345250Y-92382952D01*
X97383345Y-92382952D01*
X97438107Y-92363904D01*
X97471440Y-92325809D01*
X97485726Y-92287714D01*
X97495250Y-92211523D01*
X97488107Y-92154380D01*
X97459535Y-92078190D01*
X97435726Y-92040095D01*
X97392869Y-92002000D01*
X97333345Y-91982952D01*
X97295250Y-91982952D01*
X97240488Y-92002000D01*
X97223821Y-92021047D01*
X96933345Y-91982952D02*
X96969059Y-92268666D01*
X96995250Y-92325809D01*
X97038107Y-92363904D01*
X97097630Y-92382952D01*
X97135726Y-92382952D01*
X96602392Y-92382952D02*
X96792869Y-92382952D01*
X96742869Y-91982952D01*
X96235726Y-92344857D02*
X96257154Y-92363904D01*
X96316678Y-92382952D01*
X96354773Y-92382952D01*
X96409535Y-92363904D01*
X96442869Y-92325809D01*
X96457154Y-92287714D01*
X96466678Y-92211523D01*
X96459535Y-92154380D01*
X96430964Y-92078190D01*
X96407154Y-92040095D01*
X96364297Y-92002000D01*
X96304773Y-91982952D01*
X96266678Y-91982952D01*
X96211916Y-92002000D01*
X96195250Y-92021047D01*
X95904773Y-91982952D02*
X95940488Y-92268666D01*
X95966678Y-92325809D01*
X96009535Y-92363904D01*
X96069059Y-92382952D01*
X96107154Y-92382952D01*
X95573821Y-92382952D02*
X95764297Y-92382952D01*
X95714297Y-91982952D01*
X95207154Y-92344857D02*
X95228583Y-92363904D01*
X95288107Y-92382952D01*
X95326202Y-92382952D01*
X95380964Y-92363904D01*
X95414297Y-92325809D01*
X95428583Y-92287714D01*
X95438107Y-92211523D01*
X95430964Y-92154380D01*
X95402392Y-92078190D01*
X95378583Y-92040095D01*
X95335726Y-92002000D01*
X95276202Y-91982952D01*
X95238107Y-91982952D01*
X95183345Y-92002000D01*
X95166678Y-92021047D01*
D11*
X109681380Y-87327916D02*
X109681380Y-87518392D01*
X109729000Y-87613630D01*
X109776619Y-87661250D01*
X109919476Y-87756488D01*
X110109952Y-87804107D01*
X110490904Y-87804107D01*
X110586142Y-87756488D01*
X110633761Y-87708869D01*
X110681380Y-87613630D01*
X110681380Y-87423154D01*
X110633761Y-87327916D01*
X110586142Y-87280297D01*
X110490904Y-87232678D01*
X110252809Y-87232678D01*
X110157571Y-87280297D01*
X110109952Y-87327916D01*
X110062333Y-87423154D01*
X110062333Y-87613630D01*
X110109952Y-87708869D01*
X110157571Y-87756488D01*
X110252809Y-87804107D01*
X110586142Y-86804107D02*
X110633761Y-86756488D01*
X110681380Y-86804107D01*
X110633761Y-86851726D01*
X110586142Y-86804107D01*
X110681380Y-86804107D01*
X109681380Y-86137440D02*
X109681380Y-86042202D01*
X109729000Y-85946964D01*
X109776619Y-85899345D01*
X109871857Y-85851726D01*
X110062333Y-85804107D01*
X110300428Y-85804107D01*
X110490904Y-85851726D01*
X110586142Y-85899345D01*
X110633761Y-85946964D01*
X110681380Y-86042202D01*
X110681380Y-86137440D01*
X110633761Y-86232678D01*
X110586142Y-86280297D01*
X110490904Y-86327916D01*
X110300428Y-86375535D01*
X110062333Y-86375535D01*
X109871857Y-86327916D01*
X109776619Y-86280297D01*
X109729000Y-86232678D01*
X109681380Y-86137440D01*
X109681380Y-85470773D02*
X109681380Y-84851726D01*
X110062333Y-85185059D01*
X110062333Y-85042202D01*
X110109952Y-84946964D01*
X110157571Y-84899345D01*
X110252809Y-84851726D01*
X110490904Y-84851726D01*
X110586142Y-84899345D01*
X110633761Y-84946964D01*
X110681380Y-85042202D01*
X110681380Y-85327916D01*
X110633761Y-85423154D01*
X110586142Y-85470773D01*
X109776619Y-84470773D02*
X109729000Y-84423154D01*
X109681380Y-84327916D01*
X109681380Y-84089821D01*
X109729000Y-83994583D01*
X109776619Y-83946964D01*
X109871857Y-83899345D01*
X109967095Y-83899345D01*
X110109952Y-83946964D01*
X110681380Y-84518392D01*
X110681380Y-83899345D01*
X109681380Y-82994583D02*
X109681380Y-83470773D01*
X110157571Y-83518392D01*
X110109952Y-83470773D01*
X110062333Y-83375535D01*
X110062333Y-83137440D01*
X110109952Y-83042202D01*
X110157571Y-82994583D01*
X110252809Y-82946964D01*
X110490904Y-82946964D01*
X110586142Y-82994583D01*
X110633761Y-83042202D01*
X110681380Y-83137440D01*
X110681380Y-83375535D01*
X110633761Y-83470773D01*
X110586142Y-83518392D01*
X110681380Y-81756488D02*
X110014714Y-81756488D01*
X110109952Y-81756488D02*
X110062333Y-81708869D01*
X110014714Y-81613630D01*
X110014714Y-81470773D01*
X110062333Y-81375535D01*
X110157571Y-81327916D01*
X110681380Y-81327916D01*
X110157571Y-81327916D02*
X110062333Y-81280297D01*
X110014714Y-81185059D01*
X110014714Y-81042202D01*
X110062333Y-80946964D01*
X110157571Y-80899345D01*
X110681380Y-80899345D01*
X110681380Y-80423154D02*
X110014714Y-80423154D01*
X110109952Y-80423154D02*
X110062333Y-80375535D01*
X110014714Y-80280297D01*
X110014714Y-80137440D01*
X110062333Y-80042202D01*
X110157571Y-79994583D01*
X110681380Y-79994583D01*
X110157571Y-79994583D02*
X110062333Y-79946964D01*
X110014714Y-79851726D01*
X110014714Y-79708869D01*
X110062333Y-79613630D01*
X110157571Y-79566011D01*
X110681380Y-79566011D01*
X105910000Y-80645000D02*
X111965420Y-80645000D01*
X105910000Y-86677500D02*
X111965420Y-86677500D01*
X111379000Y-80645000D02*
X111379000Y-86677500D01*
X111379000Y-80645000D02*
X111379000Y-86677500D01*
X111379000Y-80645000D02*
X110792579Y-81771504D01*
X111379000Y-80645000D02*
X111965421Y-81771504D01*
X111379000Y-86677500D02*
X111965421Y-85550996D01*
X111379000Y-86677500D02*
X110792579Y-85550996D01*
D12*
X95758000Y-84785200D02*
X95758000Y-88950800D01*
D10*
X96225514Y-88951333D02*
X96225514Y-88784666D01*
X95963609Y-88713238D02*
X95963609Y-88951333D01*
X96463609Y-88951333D01*
X96463609Y-88713238D01*
X95963609Y-88284666D02*
X96463609Y-88284666D01*
X95987419Y-88284666D02*
X95963609Y-88332285D01*
X95963609Y-88427523D01*
X95987419Y-88475142D01*
X96011228Y-88498952D01*
X96058847Y-88522761D01*
X96201704Y-88522761D01*
X96249323Y-88498952D01*
X96273133Y-88475142D01*
X96296942Y-88427523D01*
X96296942Y-88332285D01*
X96273133Y-88284666D01*
X96106466Y-87689428D02*
X96106466Y-87451333D01*
X95963609Y-87737047D02*
X96463609Y-87570380D01*
X95963609Y-87403714D01*
X96296942Y-87308476D02*
X96296942Y-87118000D01*
X96463609Y-87237047D02*
X96035038Y-87237047D01*
X95987419Y-87213238D01*
X95963609Y-87165619D01*
X95963609Y-87118000D01*
X95963609Y-86951333D02*
X96463609Y-86951333D01*
X96154085Y-86903714D02*
X95963609Y-86760857D01*
X96296942Y-86760857D02*
X96106466Y-86951333D01*
X95963609Y-86546571D02*
X96296942Y-86546571D01*
X96463609Y-86546571D02*
X96439800Y-86570380D01*
X96415990Y-86546571D01*
X96439800Y-86522761D01*
X96463609Y-86546571D01*
X96415990Y-86546571D01*
X96296942Y-86308476D02*
X95963609Y-86308476D01*
X96249323Y-86308476D02*
X96273133Y-86284666D01*
X96296942Y-86237047D01*
X96296942Y-86165619D01*
X96273133Y-86118000D01*
X96225514Y-86094190D01*
X95963609Y-86094190D01*
X95987419Y-85879904D02*
X95963609Y-85832285D01*
X95963609Y-85737047D01*
X95987419Y-85689428D01*
X96035038Y-85665619D01*
X96058847Y-85665619D01*
X96106466Y-85689428D01*
X96130276Y-85737047D01*
X96130276Y-85808476D01*
X96154085Y-85856095D01*
X96201704Y-85879904D01*
X96225514Y-85879904D01*
X96273133Y-85856095D01*
X96296942Y-85808476D01*
X96296942Y-85737047D01*
X96273133Y-85689428D01*
X95963609Y-85379904D02*
X95987419Y-85427523D01*
X96011228Y-85451333D01*
X96058847Y-85475142D01*
X96201704Y-85475142D01*
X96249323Y-85451333D01*
X96273133Y-85427523D01*
X96296942Y-85379904D01*
X96296942Y-85308476D01*
X96273133Y-85260857D01*
X96249323Y-85237047D01*
X96201704Y-85213238D01*
X96058847Y-85213238D01*
X96011228Y-85237047D01*
X95987419Y-85260857D01*
X95963609Y-85308476D01*
X95963609Y-85379904D01*
X96296942Y-84998952D02*
X95963609Y-84998952D01*
X96249323Y-84998952D02*
X96273133Y-84975142D01*
X96296942Y-84927523D01*
X96296942Y-84856095D01*
X96273133Y-84808476D01*
X96225514Y-84784666D01*
X95963609Y-84784666D01*
X95507152Y-88734666D02*
X95526200Y-88715619D01*
X95545247Y-88677523D01*
X95545247Y-88582285D01*
X95526200Y-88544190D01*
X95507152Y-88525142D01*
X95469057Y-88506095D01*
X95430961Y-88506095D01*
X95373819Y-88525142D01*
X95145247Y-88753714D01*
X95145247Y-88506095D01*
X95507152Y-88353714D02*
X95526200Y-88334666D01*
X95545247Y-88296571D01*
X95545247Y-88201333D01*
X95526200Y-88163238D01*
X95507152Y-88144190D01*
X95469057Y-88125142D01*
X95430961Y-88125142D01*
X95373819Y-88144190D01*
X95145247Y-88372761D01*
X95145247Y-88125142D01*
X95564295Y-87668000D02*
X95050009Y-88010857D01*
X95545247Y-87458476D02*
X95545247Y-87420380D01*
X95526200Y-87382285D01*
X95507152Y-87363238D01*
X95469057Y-87344190D01*
X95392866Y-87325142D01*
X95297628Y-87325142D01*
X95221438Y-87344190D01*
X95183342Y-87363238D01*
X95164295Y-87382285D01*
X95145247Y-87420380D01*
X95145247Y-87458476D01*
X95164295Y-87496571D01*
X95183342Y-87515619D01*
X95221438Y-87534666D01*
X95297628Y-87553714D01*
X95392866Y-87553714D01*
X95469057Y-87534666D01*
X95507152Y-87515619D01*
X95526200Y-87496571D01*
X95545247Y-87458476D01*
X95145247Y-86944190D02*
X95145247Y-87172761D01*
X95145247Y-87058476D02*
X95545247Y-87058476D01*
X95488104Y-87096571D01*
X95450009Y-87134666D01*
X95430961Y-87172761D01*
X95564295Y-86487047D02*
X95050009Y-86829904D01*
X95507152Y-86372761D02*
X95526200Y-86353714D01*
X95545247Y-86315619D01*
X95545247Y-86220380D01*
X95526200Y-86182285D01*
X95507152Y-86163238D01*
X95469057Y-86144190D01*
X95430961Y-86144190D01*
X95373819Y-86163238D01*
X95145247Y-86391809D01*
X95145247Y-86144190D01*
X95545247Y-85896571D02*
X95545247Y-85858476D01*
X95526200Y-85820380D01*
X95507152Y-85801333D01*
X95469057Y-85782285D01*
X95392866Y-85763238D01*
X95297628Y-85763238D01*
X95221438Y-85782285D01*
X95183342Y-85801333D01*
X95164295Y-85820380D01*
X95145247Y-85858476D01*
X95145247Y-85896571D01*
X95164295Y-85934666D01*
X95183342Y-85953714D01*
X95221438Y-85972761D01*
X95297628Y-85991809D01*
X95392866Y-85991809D01*
X95469057Y-85972761D01*
X95507152Y-85953714D01*
X95526200Y-85934666D01*
X95545247Y-85896571D01*
X95507152Y-85610857D02*
X95526200Y-85591809D01*
X95545247Y-85553714D01*
X95545247Y-85458476D01*
X95526200Y-85420380D01*
X95507152Y-85401333D01*
X95469057Y-85382285D01*
X95430961Y-85382285D01*
X95373819Y-85401333D01*
X95145247Y-85629904D01*
X95145247Y-85382285D01*
X95545247Y-85248952D02*
X95545247Y-85001333D01*
X95392866Y-85134666D01*
X95392866Y-85077523D01*
X95373819Y-85039428D01*
X95354771Y-85020380D01*
X95316676Y-85001333D01*
X95221438Y-85001333D01*
X95183342Y-85020380D01*
X95164295Y-85039428D01*
X95145247Y-85077523D01*
X95145247Y-85191809D01*
X95164295Y-85229904D01*
X95183342Y-85248952D01*
D11*
X100243542Y-90284529D02*
X100286400Y-90374410D01*
X100372114Y-90458933D01*
X100500685Y-90585719D01*
X100543542Y-90675600D01*
X100543542Y-90770838D01*
X100329257Y-90750005D02*
X100372114Y-90839886D01*
X100457828Y-90924410D01*
X100629257Y-90950600D01*
X100929257Y-90913100D01*
X101100685Y-90844052D01*
X101186400Y-90738100D01*
X101229257Y-90637505D01*
X101229257Y-90447029D01*
X101186400Y-90357148D01*
X101100685Y-90272624D01*
X100929257Y-90246433D01*
X100629257Y-90283933D01*
X100457828Y-90352981D01*
X100372114Y-90458933D01*
X100329257Y-90559529D01*
X100329257Y-90750005D01*
X100929257Y-89389291D02*
X100329257Y-89464291D01*
X100929257Y-89817862D02*
X100457828Y-89876791D01*
X100372114Y-89839886D01*
X100329257Y-89750005D01*
X100329257Y-89607148D01*
X100372114Y-89506552D01*
X100414971Y-89453576D01*
X100372114Y-88601791D02*
X100329257Y-88702386D01*
X100329257Y-88892862D01*
X100372114Y-88982743D01*
X100457828Y-89019648D01*
X100800685Y-88976791D01*
X100886400Y-88918457D01*
X100929257Y-88817862D01*
X100929257Y-88627386D01*
X100886400Y-88537505D01*
X100800685Y-88500600D01*
X100714971Y-88511314D01*
X100629257Y-88998219D01*
X100372114Y-87697029D02*
X100329257Y-87797624D01*
X100329257Y-87988100D01*
X100372114Y-88077981D01*
X100414971Y-88120243D01*
X100500685Y-88157148D01*
X100757828Y-88125005D01*
X100843542Y-88066672D01*
X100886400Y-88013695D01*
X100929257Y-87913100D01*
X100929257Y-87722624D01*
X100886400Y-87632743D01*
X100929257Y-87341672D02*
X100929257Y-86960719D01*
X101229257Y-87161314D02*
X100457828Y-87257743D01*
X100372114Y-87220838D01*
X100329257Y-87130957D01*
X100329257Y-87035719D01*
X100329257Y-86559529D02*
X100372114Y-86649410D01*
X100414971Y-86691672D01*
X100500685Y-86728576D01*
X100757828Y-86696433D01*
X100843542Y-86638100D01*
X100886400Y-86585124D01*
X100929257Y-86484529D01*
X100929257Y-86341672D01*
X100886400Y-86251791D01*
X100843542Y-86209529D01*
X100757828Y-86172624D01*
X100500685Y-86204767D01*
X100414971Y-86263100D01*
X100372114Y-86316076D01*
X100329257Y-86416672D01*
X100329257Y-86559529D01*
X100329257Y-85797624D02*
X101229257Y-85685124D01*
X101229257Y-85447029D01*
X101186400Y-85309529D01*
X101100685Y-85225005D01*
X101014971Y-85188100D01*
X100843542Y-85161910D01*
X100714971Y-85177981D01*
X100543542Y-85247029D01*
X100457828Y-85305362D01*
X100372114Y-85411314D01*
X100329257Y-85559529D01*
X100329257Y-85797624D01*
X100329257Y-84797624D02*
X100929257Y-84722624D01*
X100757828Y-84744052D02*
X100843542Y-84685719D01*
X100886400Y-84632743D01*
X100929257Y-84532148D01*
X100929257Y-84436910D01*
X100329257Y-84178576D02*
X100929257Y-84103576D01*
X101229257Y-84066076D02*
X101186400Y-84119052D01*
X101143542Y-84076791D01*
X101186400Y-84023814D01*
X101229257Y-84066076D01*
X101143542Y-84076791D01*
X100929257Y-83722624D02*
X100329257Y-83559529D01*
X100929257Y-83246433D01*
X100372114Y-82554172D02*
X100329257Y-82654767D01*
X100329257Y-82845243D01*
X100372114Y-82935124D01*
X100457828Y-82972029D01*
X100800685Y-82929172D01*
X100886400Y-82870838D01*
X100929257Y-82770243D01*
X100929257Y-82579767D01*
X100886400Y-82489886D01*
X100800685Y-82452981D01*
X100714971Y-82463695D01*
X100629257Y-82950600D01*
D12*
X100041047Y-82769583D02*
X99641047Y-82619583D01*
X100041047Y-82369583D01*
X99641047Y-81905297D02*
X99641047Y-82248154D01*
X99641047Y-82076726D02*
X100041047Y-82026726D01*
X99983904Y-82091011D01*
X99945809Y-82152916D01*
X99926761Y-82212440D01*
X98117047Y-82629285D02*
X98517047Y-82629285D01*
X98517047Y-82476904D01*
X98498000Y-82438809D01*
X98478952Y-82419761D01*
X98440857Y-82400714D01*
X98383714Y-82400714D01*
X98345619Y-82419761D01*
X98326571Y-82438809D01*
X98307523Y-82476904D01*
X98307523Y-82629285D01*
X98117047Y-82000714D02*
X98307523Y-82134047D01*
X98117047Y-82229285D02*
X98517047Y-82229285D01*
X98517047Y-82076904D01*
X98498000Y-82038809D01*
X98478952Y-82019761D01*
X98440857Y-82000714D01*
X98383714Y-82000714D01*
X98345619Y-82019761D01*
X98326571Y-82038809D01*
X98307523Y-82076904D01*
X98307523Y-82229285D01*
X98517047Y-81753095D02*
X98517047Y-81676904D01*
X98498000Y-81638809D01*
X98459904Y-81600714D01*
X98383714Y-81581666D01*
X98250380Y-81581666D01*
X98174190Y-81600714D01*
X98136095Y-81638809D01*
X98117047Y-81676904D01*
X98117047Y-81753095D01*
X98136095Y-81791190D01*
X98174190Y-81829285D01*
X98250380Y-81848333D01*
X98383714Y-81848333D01*
X98459904Y-81829285D01*
X98498000Y-81791190D01*
X98517047Y-81753095D01*
X98498000Y-81200714D02*
X98517047Y-81238809D01*
X98517047Y-81295952D01*
X98498000Y-81353095D01*
X98459904Y-81391190D01*
X98421809Y-81410238D01*
X98345619Y-81429285D01*
X98288476Y-81429285D01*
X98212285Y-81410238D01*
X98174190Y-81391190D01*
X98136095Y-81353095D01*
X98117047Y-81295952D01*
X98117047Y-81257857D01*
X98136095Y-81200714D01*
X98155142Y-81181666D01*
X98288476Y-81181666D01*
X98288476Y-81257857D01*
X93754571Y-89442857D02*
X93735523Y-89385714D01*
X93716476Y-89366666D01*
X93678380Y-89347619D01*
X93621238Y-89347619D01*
X93583142Y-89366666D01*
X93564095Y-89385714D01*
X93545047Y-89423809D01*
X93545047Y-89576190D01*
X93945047Y-89576190D01*
X93945047Y-89442857D01*
X93926000Y-89404761D01*
X93906952Y-89385714D01*
X93868857Y-89366666D01*
X93830761Y-89366666D01*
X93792666Y-89385714D01*
X93773619Y-89404761D01*
X93754571Y-89442857D01*
X93754571Y-89576190D01*
X93659333Y-89195238D02*
X93659333Y-89004761D01*
X93545047Y-89233333D02*
X93945047Y-89100000D01*
X93545047Y-88966666D01*
X93945047Y-88890476D02*
X93945047Y-88661904D01*
X93545047Y-88776190D02*
X93945047Y-88776190D01*
X93697428Y-88528571D02*
X93697428Y-88223809D01*
X101673047Y-82867428D02*
X102073047Y-82867428D01*
X101787333Y-82734095D01*
X102073047Y-82600761D01*
X101673047Y-82600761D01*
X101673047Y-82200761D02*
X101673047Y-82429333D01*
X101673047Y-82315047D02*
X102073047Y-82315047D01*
X102015904Y-82353142D01*
X101977809Y-82391238D01*
X101958761Y-82429333D01*
X101825428Y-82029333D02*
X101825428Y-81724571D01*
X101673047Y-81876952D02*
X101977809Y-81876952D01*
X93291047Y-82642000D02*
X93691047Y-82642000D01*
X93500571Y-82318190D02*
X93481523Y-82261047D01*
X93462476Y-82242000D01*
X93424380Y-82222952D01*
X93367238Y-82222952D01*
X93329142Y-82242000D01*
X93310095Y-82261047D01*
X93291047Y-82299142D01*
X93291047Y-82451523D01*
X93691047Y-82451523D01*
X93691047Y-82318190D01*
X93672000Y-82280095D01*
X93652952Y-82261047D01*
X93614857Y-82242000D01*
X93576761Y-82242000D01*
X93538666Y-82261047D01*
X93519619Y-82280095D01*
X93500571Y-82318190D01*
X93500571Y-82451523D01*
X93691047Y-82051523D02*
X93367238Y-82051523D01*
X93329142Y-82032476D01*
X93310095Y-82013428D01*
X93291047Y-81975333D01*
X93291047Y-81899142D01*
X93310095Y-81861047D01*
X93329142Y-81842000D01*
X93367238Y-81822952D01*
X93691047Y-81822952D01*
X93310095Y-81651523D02*
X93291047Y-81594380D01*
X93291047Y-81499142D01*
X93310095Y-81461047D01*
X93329142Y-81442000D01*
X93367238Y-81422952D01*
X93405333Y-81422952D01*
X93443428Y-81442000D01*
X93462476Y-81461047D01*
X93481523Y-81499142D01*
X93500571Y-81575333D01*
X93519619Y-81613428D01*
X93538666Y-81632476D01*
X93576761Y-81651523D01*
X93614857Y-81651523D01*
X93652952Y-81632476D01*
X93672000Y-81613428D01*
X93691047Y-81575333D01*
X93691047Y-81480095D01*
X93672000Y-81422952D01*
X101673047Y-91249428D02*
X102073047Y-91249428D01*
X101787333Y-91116095D01*
X102073047Y-90982761D01*
X101673047Y-90982761D01*
X102034952Y-90811333D02*
X102054000Y-90792285D01*
X102073047Y-90754190D01*
X102073047Y-90658952D01*
X102054000Y-90620857D01*
X102034952Y-90601809D01*
X101996857Y-90582761D01*
X101958761Y-90582761D01*
X101901619Y-90601809D01*
X101673047Y-90830380D01*
X101673047Y-90582761D01*
X101825428Y-90411333D02*
X101825428Y-90106571D01*
X101673047Y-90258952D02*
X101977809Y-90258952D01*
X93691047Y-84950238D02*
X93691047Y-84702619D01*
X93538666Y-84835952D01*
X93538666Y-84778809D01*
X93519619Y-84740714D01*
X93500571Y-84721666D01*
X93462476Y-84702619D01*
X93367238Y-84702619D01*
X93329142Y-84721666D01*
X93310095Y-84740714D01*
X93291047Y-84778809D01*
X93291047Y-84893095D01*
X93310095Y-84931190D01*
X93329142Y-84950238D01*
X93691047Y-84588333D02*
X93291047Y-84455000D01*
X93691047Y-84321666D01*
X93691047Y-84226428D02*
X93691047Y-83978809D01*
X93538666Y-84112142D01*
X93538666Y-84055000D01*
X93519619Y-84016904D01*
X93500571Y-83997857D01*
X93462476Y-83978809D01*
X93367238Y-83978809D01*
X93329142Y-83997857D01*
X93310095Y-84016904D01*
X93291047Y-84055000D01*
X93291047Y-84169285D01*
X93310095Y-84207380D01*
X93329142Y-84226428D01*
D13*
%TO.C,TP4*%
X93275000Y-92005000D02*
X93275000Y-89605000D01*
X90875000Y-92005000D02*
X93275000Y-92005000D01*
X90875000Y-89605000D02*
X90875000Y-92005000D01*
X93275000Y-89605000D02*
X90875000Y-89605000D01*
%TO.C,TP5*%
X97855000Y-81915000D02*
G75*
G03*
X97855000Y-81915000I-700000J0D01*
G01*
%TO.C,TP15*%
X104705000Y-83750000D02*
X104705000Y-81350000D01*
X104705000Y-81350000D02*
X102305000Y-81350000D01*
X102305000Y-81350000D02*
X102305000Y-83750000D01*
X102305000Y-83750000D02*
X104705000Y-83750000D01*
%TO.C,TP3*%
X93275000Y-86430000D02*
X90875000Y-86430000D01*
X93275000Y-88830000D02*
X93275000Y-86430000D01*
X90875000Y-86430000D02*
X90875000Y-88830000D01*
X90875000Y-88830000D02*
X93275000Y-88830000D01*
%TO.C,TP11*%
X102305000Y-92005000D02*
X104705000Y-92005000D01*
X102305000Y-89605000D02*
X102305000Y-92005000D01*
X104705000Y-92005000D02*
X104705000Y-89605000D01*
X104705000Y-89605000D02*
X102305000Y-89605000D01*
%TO.C,TP9*%
X91125000Y-80965000D02*
X91125000Y-82865000D01*
X93025000Y-82865000D02*
X93025000Y-80965000D01*
X93025000Y-80965000D02*
X91125000Y-80965000D01*
X91125000Y-82865000D02*
X93025000Y-82865000D01*
%TO.C,TP8*%
X91125000Y-83505000D02*
X91125000Y-85405000D01*
X93025000Y-83505000D02*
X91125000Y-83505000D01*
X91125000Y-85405000D02*
X93025000Y-85405000D01*
X93025000Y-85405000D02*
X93025000Y-83505000D01*
%TD*%
%LPC*%
D14*
%TO.C,TP4*%
X92075000Y-90805000D03*
%TD*%
D15*
%TO.C,TP5*%
X97155000Y-81915000D03*
%TD*%
D14*
%TO.C,TP15*%
X103505000Y-82550000D03*
%TD*%
%TO.C,TP3*%
X92075000Y-87630000D03*
%TD*%
%TO.C,TP11*%
X103505000Y-90805000D03*
%TD*%
D16*
%TO.C,TP9*%
X92075000Y-81915000D03*
%TD*%
%TO.C,TP8*%
X92075000Y-84455000D03*
%TD*%
M02*
