M48
; DRILL file {KiCad (6.0.5)} date Sun Jan 22 23:41:33 2023
; FORMAT={-:-/ absolute / inch / decimal}
; #@! TF.CreationDate,2023-01-22T23:41:33+00:00
; #@! TF.GenerationSoftware,Kicad,Pcbnew,(6.0.5)
; #@! TF.FileFunction,Plated,1,2,PTH
FMAT,2
INCH
; #@! TA.AperFunction,Plated,PTH,ViaDrill
T1C0.0118
; #@! TA.AperFunction,Plated,PTH,ViaDrill
T2C0.0157
%
G90
G05
T1
X3.57Y-3.38
X3.5745Y-3.63
X3.575Y-3.195
X3.575Y-3.285
X3.575Y-3.515
X3.63Y-3.39
X3.6703Y-3.515
X3.68Y-3.27
X3.6883Y-3.5783
X3.7Y-3.38
X3.705Y-3.225
X3.73Y-3.53
X3.7317Y-3.4483
X3.75Y-3.22
X3.76Y-3.53
X3.77Y-3.315
X3.7839Y-3.1961
X3.79Y-3.53
X3.825Y-3.37
X3.83Y-3.44
X3.86Y-3.44
X3.865Y-3.3846
X3.88Y-3.245
X3.9116Y-3.5985
X3.93Y-3.3505
X3.94Y-3.195
X3.94Y-3.595
X3.99Y-3.245
X4.01Y-3.195
X4.01Y-3.5
X4.025Y-3.34
X4.0315Y-3.4
X4.08Y-3.34
X4.08Y-3.41
X4.12Y-3.37
X4.125Y-3.195
X4.125Y-3.45
X4.13Y-3.31
X4.13Y-3.515
X4.13Y-3.63
T2
X3.72Y-3.5
X3.89Y-3.36
X3.9257Y-3.4606
X4.0Y-3.62
X4.01Y-3.37
X4.0512Y-3.3147
X4.07Y-3.51
T0
M30
