%TF.GenerationSoftware,KiCad,Pcbnew,7.0.1*%
%TF.CreationDate,2023-03-31T16:52:12+01:00*%
%TF.ProjectId,QuectoDrive,51756563-746f-4447-9269-76652e6b6963,rev?*%
%TF.SameCoordinates,Original*%
%TF.FileFunction,Copper,L2,Bot*%
%TF.FilePolarity,Positive*%
%FSLAX46Y46*%
G04 Gerber Fmt 4.6, Leading zero omitted, Abs format (unit mm)*
G04 Created by KiCad (PCBNEW 7.0.1) date 2023-03-31 16:52:12*
%MOMM*%
%LPD*%
G01*
G04 APERTURE LIST*
%TA.AperFunction,SMDPad,CuDef*%
%ADD10C,1.500000*%
%TD*%
%TA.AperFunction,SMDPad,CuDef*%
%ADD11R,2.000000X2.000000*%
%TD*%
%TA.AperFunction,SMDPad,CuDef*%
%ADD12R,1.500000X1.500000*%
%TD*%
%TA.AperFunction,ViaPad*%
%ADD13C,0.400000*%
%TD*%
%TA.AperFunction,ViaPad*%
%ADD14C,0.800000*%
%TD*%
%TA.AperFunction,Conductor*%
%ADD15C,0.300000*%
%TD*%
%TA.AperFunction,Conductor*%
%ADD16C,0.800000*%
%TD*%
%TA.AperFunction,Conductor*%
%ADD17C,0.200000*%
%TD*%
%TA.AperFunction,Conductor*%
%ADD18C,1.500000*%
%TD*%
G04 APERTURE END LIST*
D10*
%TO.P,TP14,1,1*%
%TO.N,/DEBUG_TX*%
X97028000Y-85445600D03*
%TD*%
%TO.P,TP13,1,1*%
%TO.N,GND*%
X97028000Y-90525600D03*
%TD*%
%TO.P,TP7,1,1*%
%TO.N,+3.3V*%
X97028000Y-87985600D03*
%TD*%
%TO.P,TP5,1,1*%
%TO.N,/UDPI*%
X97028000Y-82905600D03*
%TD*%
D11*
%TO.P,TP4,1,1*%
%TO.N,GND*%
X91821000Y-91059000D03*
%TD*%
%TO.P,TP15,1,1*%
%TO.N,/M1+*%
X103759000Y-82550000D03*
%TD*%
%TO.P,TP3,1,1*%
%TO.N,GND*%
X91821000Y-87884000D03*
%TD*%
%TO.P,TP11,1,1*%
%TO.N,/M2+*%
X103759000Y-90805000D03*
%TD*%
D12*
%TO.P,TP9,1,1*%
%TO.N,/IBUS*%
X91567000Y-82042000D03*
%TD*%
%TO.P,TP8,1,1*%
%TO.N,+3.3V*%
X91567000Y-84582000D03*
%TD*%
D13*
%TO.N,GND*%
X96605532Y-89818932D03*
X104902000Y-92329000D03*
X104775000Y-81026000D03*
X94869000Y-84201000D03*
X93091000Y-89408000D03*
X96411031Y-81007970D03*
X98425000Y-82042000D03*
X98425000Y-82804000D03*
X105029000Y-89281000D03*
X90551000Y-83312000D03*
X95587000Y-84201000D03*
X90551000Y-86106000D03*
X90551000Y-89535000D03*
X93345000Y-90805000D03*
%TO.N,+3.3V*%
X101219000Y-82423000D03*
%TO.N,/DEBUG_TX*%
X93715457Y-82901500D03*
%TO.N,GND*%
X93894500Y-86741000D03*
%TO.N,/UDPI*%
X94107000Y-82423000D03*
%TO.N,/IBUS*%
X93190200Y-83411200D03*
%TO.N,GND*%
X94836571Y-87757000D03*
X99695000Y-85103000D03*
X99371888Y-90169987D03*
X101981000Y-92329000D03*
D14*
%TO.N,+BATT*%
X101854000Y-85598000D03*
X100838000Y-91821000D03*
D13*
%TO.N,GND*%
X94323500Y-89535000D03*
X95911623Y-89666437D03*
X104648000Y-85598000D03*
X101727000Y-88900000D03*
X98171000Y-87376000D03*
X102235000Y-81153000D03*
X102399500Y-86360000D03*
X102235000Y-84836000D03*
X99949000Y-91186000D03*
X104902000Y-84074000D03*
X104775000Y-87630000D03*
X99355500Y-91313000D03*
X92456000Y-86106000D03*
X103632000Y-86614000D03*
X98171000Y-85968980D03*
X103632000Y-84836000D03*
D14*
%TO.N,/M1+*%
X102899752Y-84194285D03*
%TO.N,/M2+*%
X103378000Y-89154000D03*
%TO.N,+3.3V*%
X95123000Y-89535000D03*
X98806000Y-85344000D03*
X99642777Y-88174360D03*
%TD*%
D15*
%TO.N,+3.3V*%
X94700000Y-89112000D02*
X97028000Y-89112000D01*
X95123000Y-89535000D02*
X94700000Y-89112000D01*
D16*
%TO.N,+BATT*%
X100838000Y-86614000D02*
X101854000Y-85598000D01*
X100838000Y-91821000D02*
X100838000Y-86614000D01*
D17*
%TO.N,+3.3V*%
X101219000Y-82423000D02*
X101219000Y-84709000D01*
X101219000Y-84709000D02*
X99695000Y-86233000D01*
%TO.N,/DEBUG_TX*%
X93736957Y-82923000D02*
X95369000Y-82923000D01*
D15*
%TO.N,+3.3V*%
X93345000Y-86106000D02*
X92075000Y-84836000D01*
X93345000Y-87757000D02*
X93345000Y-86106000D01*
X92075000Y-84836000D02*
X92075000Y-84455000D01*
X95123000Y-89535000D02*
X93345000Y-87757000D01*
D17*
%TO.N,/DEBUG_TX*%
X97028000Y-84582000D02*
X97028000Y-85344000D01*
X95369000Y-82923000D02*
X97028000Y-84582000D01*
X93715457Y-82901500D02*
X93736957Y-82923000D01*
%TO.N,/UDPI*%
X94107000Y-82423000D02*
X96647000Y-82423000D01*
X96647000Y-82423000D02*
X97028000Y-82804000D01*
%TO.N,/IBUS*%
X92075000Y-82296000D02*
X92075000Y-81915000D01*
X93190200Y-83411200D02*
X92075000Y-82296000D01*
D18*
%TO.N,GND*%
X91821000Y-87884000D02*
X91821000Y-90551000D01*
D15*
%TO.N,+3.3V*%
X99695000Y-86233000D02*
X98806000Y-85344000D01*
X99642777Y-88174360D02*
X99695000Y-88122137D01*
X99695000Y-88122137D02*
X99695000Y-86233000D01*
X98705137Y-89112000D02*
X97028000Y-89112000D01*
X99642777Y-88174360D02*
X98705137Y-89112000D01*
X97028000Y-87985600D02*
X97028000Y-89112000D01*
%TO.N,/M1+*%
X102899752Y-84194285D02*
X103505000Y-83589037D01*
X103505000Y-83589037D02*
X103505000Y-82550000D01*
%TO.N,/M2+*%
X103505000Y-89281000D02*
X103505000Y-90805000D01*
X103378000Y-89154000D02*
X103505000Y-89281000D01*
%TD*%
%TA.AperFunction,Conductor*%
%TO.N,GND*%
G36*
X105391048Y-80663952D02*
G01*
X105409500Y-80708500D01*
X105409500Y-92646500D01*
X105391048Y-92691048D01*
X105346500Y-92709500D01*
X90233500Y-92709500D01*
X90188952Y-92691048D01*
X90170500Y-92646500D01*
X90170500Y-85351748D01*
X90616500Y-85351748D01*
X90628133Y-85410231D01*
X90672448Y-85476552D01*
X90738769Y-85520867D01*
X90797252Y-85532500D01*
X92249722Y-85532500D01*
X92294270Y-85550952D01*
X92976048Y-86232730D01*
X92994500Y-86277278D01*
X92994500Y-87714115D01*
X92993159Y-87727045D01*
X92989956Y-87742315D01*
X92994016Y-87774876D01*
X92994500Y-87782670D01*
X92994500Y-87786041D01*
X92997872Y-87806254D01*
X92998247Y-87808827D01*
X93004595Y-87859750D01*
X93008256Y-87871177D01*
X93032676Y-87916300D01*
X93033868Y-87918616D01*
X93056401Y-87964711D01*
X93063577Y-87974332D01*
X93064581Y-87975256D01*
X93064582Y-87975258D01*
X93081613Y-87990936D01*
X93101317Y-88009076D01*
X93103196Y-88010878D01*
X94421838Y-89329520D01*
X94430031Y-89339610D01*
X94438563Y-89352669D01*
X94464451Y-89372818D01*
X94470304Y-89377986D01*
X94508146Y-89415828D01*
X94523255Y-89440125D01*
X94526059Y-89468599D01*
X94517317Y-89534999D01*
X94537956Y-89691762D01*
X94598463Y-89837840D01*
X94598464Y-89837841D01*
X94694718Y-89963282D01*
X94820159Y-90059536D01*
X94966238Y-90120044D01*
X95123000Y-90140682D01*
X95279762Y-90120044D01*
X95425841Y-90059536D01*
X95551282Y-89963282D01*
X95647536Y-89837841D01*
X95708044Y-89691762D01*
X95728682Y-89535000D01*
X95728514Y-89533724D01*
X95733877Y-89498876D01*
X95757125Y-89472367D01*
X95790975Y-89462500D01*
X96969512Y-89462500D01*
X97010902Y-89462500D01*
X97016103Y-89462714D01*
X97057344Y-89466132D01*
X97064073Y-89464427D01*
X97079539Y-89462500D01*
X98662252Y-89462500D01*
X98675180Y-89463840D01*
X98690452Y-89467043D01*
X98723013Y-89462983D01*
X98730807Y-89462500D01*
X98734180Y-89462500D01*
X98754402Y-89459125D01*
X98756952Y-89458752D01*
X98806530Y-89452573D01*
X98806531Y-89452572D01*
X98807898Y-89452402D01*
X98819306Y-89448747D01*
X98820515Y-89448092D01*
X98820518Y-89448092D01*
X98864498Y-89424289D01*
X98866712Y-89423150D01*
X98911621Y-89401198D01*
X98911622Y-89401196D01*
X98912853Y-89400595D01*
X98922460Y-89393432D01*
X98923391Y-89392419D01*
X98923395Y-89392418D01*
X98957248Y-89355641D01*
X98958980Y-89353837D01*
X99523606Y-88789211D01*
X99547901Y-88774104D01*
X99576374Y-88771300D01*
X99642777Y-88780042D01*
X99799539Y-88759404D01*
X99945618Y-88698896D01*
X100071059Y-88602642D01*
X100124519Y-88532970D01*
X100156212Y-88511036D01*
X100194751Y-88511666D01*
X100225709Y-88534627D01*
X100237500Y-88571323D01*
X100237500Y-91777510D01*
X100236961Y-91785734D01*
X100232317Y-91821000D01*
X100252956Y-91977762D01*
X100313463Y-92123840D01*
X100313464Y-92123841D01*
X100409718Y-92249282D01*
X100535159Y-92345536D01*
X100681238Y-92406044D01*
X100838000Y-92426682D01*
X100994762Y-92406044D01*
X101140841Y-92345536D01*
X101266282Y-92249282D01*
X101362536Y-92123841D01*
X101423044Y-91977762D01*
X101443189Y-91824748D01*
X102558500Y-91824748D01*
X102570133Y-91883231D01*
X102614448Y-91949552D01*
X102680769Y-91993867D01*
X102739252Y-92005500D01*
X104778746Y-92005500D01*
X104778748Y-92005500D01*
X104837231Y-91993867D01*
X104903552Y-91949552D01*
X104947867Y-91883231D01*
X104959500Y-91824748D01*
X104959500Y-89785252D01*
X104947867Y-89726769D01*
X104903552Y-89660448D01*
X104837231Y-89616133D01*
X104778748Y-89604500D01*
X104778746Y-89604500D01*
X103918500Y-89604500D01*
X103873952Y-89586048D01*
X103855500Y-89541500D01*
X103855500Y-89539525D01*
X103868519Y-89501173D01*
X103870282Y-89498876D01*
X103902536Y-89456841D01*
X103963044Y-89310762D01*
X103983682Y-89154000D01*
X103963044Y-88997238D01*
X103902536Y-88851159D01*
X103806282Y-88725718D01*
X103680841Y-88629464D01*
X103680840Y-88629463D01*
X103534762Y-88568956D01*
X103378000Y-88548317D01*
X103221237Y-88568956D01*
X103075159Y-88629463D01*
X102949718Y-88725718D01*
X102853463Y-88851159D01*
X102792956Y-88997237D01*
X102772317Y-89154000D01*
X102792956Y-89310762D01*
X102853463Y-89456840D01*
X102857806Y-89462500D01*
X102887481Y-89501173D01*
X102888997Y-89503148D01*
X102901776Y-89546991D01*
X102881578Y-89587948D01*
X102839016Y-89604500D01*
X102739252Y-89604500D01*
X102700263Y-89612255D01*
X102680768Y-89616133D01*
X102614448Y-89660448D01*
X102570133Y-89726768D01*
X102570132Y-89726769D01*
X102570133Y-89726769D01*
X102558500Y-89785252D01*
X102558500Y-91824748D01*
X101443189Y-91824748D01*
X101443682Y-91821000D01*
X101439038Y-91785732D01*
X101438500Y-91777510D01*
X101438500Y-86888831D01*
X101456952Y-86844283D01*
X101651969Y-86649266D01*
X102247872Y-86053361D01*
X102254052Y-86047942D01*
X102282282Y-86026282D01*
X102378536Y-85900841D01*
X102439044Y-85754762D01*
X102459682Y-85598000D01*
X102439044Y-85441238D01*
X102378536Y-85295159D01*
X102282282Y-85169718D01*
X102156841Y-85073464D01*
X102156840Y-85073463D01*
X102010762Y-85012956D01*
X101854000Y-84992317D01*
X101697237Y-85012956D01*
X101551159Y-85073463D01*
X101425718Y-85169717D01*
X101404060Y-85197941D01*
X101398628Y-85204135D01*
X100444135Y-86158628D01*
X100437940Y-86164060D01*
X100409718Y-86185716D01*
X100368270Y-86239735D01*
X100368269Y-86239736D01*
X100313463Y-86311159D01*
X100252956Y-86457237D01*
X100232317Y-86613999D01*
X100236961Y-86649266D01*
X100237500Y-86657490D01*
X100237500Y-87777397D01*
X100225709Y-87814093D01*
X100194751Y-87837054D01*
X100156212Y-87837684D01*
X100124519Y-87815749D01*
X100071059Y-87746078D01*
X100070147Y-87745378D01*
X100051997Y-87723262D01*
X100045500Y-87695398D01*
X100045500Y-86333567D01*
X100063952Y-86289019D01*
X100394119Y-85958852D01*
X101389558Y-84963411D01*
X101401582Y-84954761D01*
X101403223Y-84952960D01*
X101403228Y-84952958D01*
X101435455Y-84917605D01*
X101437403Y-84915566D01*
X101451174Y-84901797D01*
X101452649Y-84899644D01*
X101458069Y-84892800D01*
X101478916Y-84869933D01*
X101483974Y-84856873D01*
X101490744Y-84844030D01*
X101498656Y-84832481D01*
X101505741Y-84802353D01*
X101508314Y-84794045D01*
X101519500Y-84765173D01*
X101519500Y-84751170D01*
X101521174Y-84736745D01*
X101524379Y-84723119D01*
X101520103Y-84692473D01*
X101519500Y-84683770D01*
X101519500Y-84194284D01*
X102294069Y-84194284D01*
X102314708Y-84351047D01*
X102375215Y-84497125D01*
X102375216Y-84497126D01*
X102471470Y-84622567D01*
X102596911Y-84718821D01*
X102742990Y-84779329D01*
X102899752Y-84799967D01*
X103056514Y-84779329D01*
X103202593Y-84718821D01*
X103328034Y-84622567D01*
X103424288Y-84497126D01*
X103484796Y-84351047D01*
X103505434Y-84194285D01*
X103496691Y-84127881D01*
X103499495Y-84099410D01*
X103514602Y-84075114D01*
X103722519Y-83867197D01*
X103732607Y-83859007D01*
X103745669Y-83850474D01*
X103765835Y-83824562D01*
X103770983Y-83818733D01*
X103773375Y-83816343D01*
X103785291Y-83799651D01*
X103786812Y-83797611D01*
X103804565Y-83774802D01*
X103826612Y-83756901D01*
X103854280Y-83750500D01*
X104778746Y-83750500D01*
X104778748Y-83750500D01*
X104837231Y-83738867D01*
X104903552Y-83694552D01*
X104947867Y-83628231D01*
X104959500Y-83569748D01*
X104959500Y-81530252D01*
X104947867Y-81471769D01*
X104903552Y-81405448D01*
X104837231Y-81361133D01*
X104778748Y-81349500D01*
X102739252Y-81349500D01*
X102700263Y-81357255D01*
X102680768Y-81361133D01*
X102614448Y-81405448D01*
X102570133Y-81471768D01*
X102570132Y-81471769D01*
X102570133Y-81471769D01*
X102558500Y-81530252D01*
X102558500Y-83569748D01*
X102560730Y-83580957D01*
X102572578Y-83640521D01*
X102569295Y-83641173D01*
X102574542Y-83665461D01*
X102550735Y-83705180D01*
X102471470Y-83766002D01*
X102375215Y-83891444D01*
X102314708Y-84037522D01*
X102294069Y-84194284D01*
X101519500Y-84194284D01*
X101519500Y-82714987D01*
X101537951Y-82670440D01*
X101547050Y-82661342D01*
X101604646Y-82548304D01*
X101624492Y-82423000D01*
X101604646Y-82297696D01*
X101547050Y-82184658D01*
X101457342Y-82094950D01*
X101453112Y-82092794D01*
X101344303Y-82037353D01*
X101218999Y-82017507D01*
X101093696Y-82037353D01*
X100980659Y-82094949D01*
X100890949Y-82184659D01*
X100833353Y-82297696D01*
X100813507Y-82423000D01*
X100833353Y-82548303D01*
X100888794Y-82657112D01*
X100890950Y-82661342D01*
X100900048Y-82670440D01*
X100918500Y-82714987D01*
X100918500Y-84558432D01*
X100900048Y-84602980D01*
X99774903Y-85728125D01*
X99730355Y-85746577D01*
X99685807Y-85728125D01*
X99420853Y-85463171D01*
X99405744Y-85438873D01*
X99402940Y-85410399D01*
X99402963Y-85410231D01*
X99411682Y-85344000D01*
X99391044Y-85187238D01*
X99330536Y-85041159D01*
X99234282Y-84915718D01*
X99108841Y-84819464D01*
X99108840Y-84819463D01*
X98962762Y-84758956D01*
X98806000Y-84738317D01*
X98649237Y-84758956D01*
X98503159Y-84819463D01*
X98377718Y-84915718D01*
X98281463Y-85041159D01*
X98220956Y-85187237D01*
X98200317Y-85344000D01*
X98220956Y-85500762D01*
X98281463Y-85646840D01*
X98281464Y-85646841D01*
X98377718Y-85772282D01*
X98503159Y-85868536D01*
X98649238Y-85929044D01*
X98760889Y-85943743D01*
X98805998Y-85949682D01*
X98805998Y-85949681D01*
X98806000Y-85949682D01*
X98872401Y-85940939D01*
X98900873Y-85943743D01*
X98925171Y-85958852D01*
X99326048Y-86359729D01*
X99344500Y-86404277D01*
X99344500Y-87615254D01*
X99338003Y-87643118D01*
X99319852Y-87665235D01*
X99214494Y-87746078D01*
X99118240Y-87871519D01*
X99057733Y-88017597D01*
X99037094Y-88174361D01*
X99045835Y-88240761D01*
X99043030Y-88269234D01*
X99027922Y-88293531D01*
X98578407Y-88743048D01*
X98557968Y-88756704D01*
X98533859Y-88761500D01*
X97754045Y-88761500D01*
X97710979Y-88744481D01*
X97691180Y-88702620D01*
X97705346Y-88658533D01*
X97729203Y-88629464D01*
X97822136Y-88516225D01*
X97910396Y-88351101D01*
X97964747Y-88171931D01*
X97983099Y-87985600D01*
X97964747Y-87799269D01*
X97910396Y-87620099D01*
X97822136Y-87454975D01*
X97703357Y-87310243D01*
X97558625Y-87191464D01*
X97558623Y-87191463D01*
X97558622Y-87191462D01*
X97393500Y-87103203D01*
X97278984Y-87068465D01*
X97214331Y-87048853D01*
X97028000Y-87030501D01*
X96841669Y-87048853D01*
X96841665Y-87048854D01*
X96841666Y-87048854D01*
X96662499Y-87103203D01*
X96497377Y-87191462D01*
X96352643Y-87310243D01*
X96233862Y-87454977D01*
X96145603Y-87620099D01*
X96113162Y-87727045D01*
X96091253Y-87799269D01*
X96072901Y-87985600D01*
X96091253Y-88171931D01*
X96110865Y-88236584D01*
X96145603Y-88351100D01*
X96233864Y-88516226D01*
X96248966Y-88534627D01*
X96326796Y-88629463D01*
X96350654Y-88658533D01*
X96364820Y-88702620D01*
X96345021Y-88744481D01*
X96301955Y-88761500D01*
X94871277Y-88761500D01*
X94847168Y-88756704D01*
X94826729Y-88743048D01*
X93713952Y-87630270D01*
X93695500Y-87585722D01*
X93695500Y-86148880D01*
X93696841Y-86135950D01*
X93700042Y-86120683D01*
X93695984Y-86088129D01*
X93695500Y-86080336D01*
X93695500Y-86076963D01*
X93695500Y-86076960D01*
X93692116Y-86056688D01*
X93691746Y-86054137D01*
X93691650Y-86053369D01*
X93685573Y-86004607D01*
X93685572Y-86004605D01*
X93685403Y-86003246D01*
X93681747Y-85991831D01*
X93681092Y-85990621D01*
X93681092Y-85990619D01*
X93657303Y-85946662D01*
X93656148Y-85944417D01*
X93634198Y-85899516D01*
X93634196Y-85899514D01*
X93633596Y-85898286D01*
X93626431Y-85888675D01*
X93625418Y-85887742D01*
X93588668Y-85853911D01*
X93586814Y-85852132D01*
X92535952Y-84801270D01*
X92517500Y-84756722D01*
X92517500Y-83812254D01*
X92514995Y-83799659D01*
X92505867Y-83753769D01*
X92461552Y-83687448D01*
X92395231Y-83643133D01*
X92336748Y-83631500D01*
X90797252Y-83631500D01*
X90758263Y-83639255D01*
X90738768Y-83643133D01*
X90672448Y-83687448D01*
X90628133Y-83753768D01*
X90624255Y-83773263D01*
X90616500Y-83812252D01*
X90616500Y-85351748D01*
X90170500Y-85351748D01*
X90170500Y-82811748D01*
X90616500Y-82811748D01*
X90628133Y-82870231D01*
X90672448Y-82936552D01*
X90738769Y-82980867D01*
X90797252Y-82992500D01*
X90797254Y-82992500D01*
X92320433Y-82992500D01*
X92364981Y-83010952D01*
X92773899Y-83419870D01*
X92791575Y-83454562D01*
X92804553Y-83536503D01*
X92827204Y-83580957D01*
X92862150Y-83649542D01*
X92951858Y-83739250D01*
X93064896Y-83796846D01*
X93190200Y-83816692D01*
X93315504Y-83796846D01*
X93428542Y-83739250D01*
X93518250Y-83649542D01*
X93575846Y-83536504D01*
X93595692Y-83411200D01*
X93589245Y-83370496D01*
X93595335Y-83332041D01*
X93622868Y-83304509D01*
X93661323Y-83298418D01*
X93715457Y-83306992D01*
X93840761Y-83287146D01*
X93952196Y-83230366D01*
X93980797Y-83223500D01*
X95218433Y-83223500D01*
X95262981Y-83241952D01*
X96551429Y-84530400D01*
X96569040Y-84564686D01*
X96563384Y-84602812D01*
X96536579Y-84630509D01*
X96497377Y-84651462D01*
X96352643Y-84770243D01*
X96233862Y-84914977D01*
X96145603Y-85080099D01*
X96108863Y-85201216D01*
X96091253Y-85259269D01*
X96072901Y-85445600D01*
X96091253Y-85631931D01*
X96091254Y-85631933D01*
X96145603Y-85811100D01*
X96224578Y-85958852D01*
X96233864Y-85976225D01*
X96352643Y-86120957D01*
X96497375Y-86239736D01*
X96662499Y-86327996D01*
X96841669Y-86382347D01*
X97028000Y-86400699D01*
X97214331Y-86382347D01*
X97393501Y-86327996D01*
X97558625Y-86239736D01*
X97703357Y-86120957D01*
X97822136Y-85976225D01*
X97910396Y-85811101D01*
X97964747Y-85631931D01*
X97983099Y-85445600D01*
X97964747Y-85259269D01*
X97910396Y-85080099D01*
X97822136Y-84914975D01*
X97703357Y-84770243D01*
X97558625Y-84651464D01*
X97558623Y-84651463D01*
X97558622Y-84651462D01*
X97393501Y-84563204D01*
X97368846Y-84555724D01*
X97345369Y-84542603D01*
X97329503Y-84520884D01*
X97325585Y-84512010D01*
X97325585Y-84512008D01*
X97319924Y-84499189D01*
X97315632Y-84485322D01*
X97313061Y-84471568D01*
X97313061Y-84471567D01*
X97296771Y-84445257D01*
X97292705Y-84437543D01*
X97280206Y-84409235D01*
X97270300Y-84399329D01*
X97261292Y-84387957D01*
X97253919Y-84376048D01*
X97253917Y-84376046D01*
X97229229Y-84357403D01*
X97222647Y-84351676D01*
X96823797Y-83952826D01*
X96806272Y-83919048D01*
X96811394Y-83881342D01*
X96837293Y-83853462D01*
X96874515Y-83845582D01*
X97028000Y-83860699D01*
X97214331Y-83842347D01*
X97393501Y-83787996D01*
X97558625Y-83699736D01*
X97703357Y-83580957D01*
X97822136Y-83436225D01*
X97910396Y-83271101D01*
X97964747Y-83091931D01*
X97983099Y-82905600D01*
X97964747Y-82719269D01*
X97910396Y-82540099D01*
X97822136Y-82374975D01*
X97703357Y-82230243D01*
X97558625Y-82111464D01*
X97558623Y-82111463D01*
X97558622Y-82111462D01*
X97393500Y-82023203D01*
X97278984Y-81988465D01*
X97214331Y-81968853D01*
X97028000Y-81950501D01*
X96841669Y-81968853D01*
X96841665Y-81968854D01*
X96841666Y-81968854D01*
X96662499Y-82023203D01*
X96491902Y-82114389D01*
X96490642Y-82112033D01*
X96461385Y-82122500D01*
X94398987Y-82122500D01*
X94354440Y-82104048D01*
X94345342Y-82094950D01*
X94341112Y-82092794D01*
X94232303Y-82037353D01*
X94106999Y-82017507D01*
X93981696Y-82037353D01*
X93868659Y-82094949D01*
X93778949Y-82184659D01*
X93721353Y-82297696D01*
X93701507Y-82423000D01*
X93703274Y-82434152D01*
X93692018Y-82481037D01*
X93650906Y-82506231D01*
X93590153Y-82515853D01*
X93477116Y-82573449D01*
X93387406Y-82663159D01*
X93329810Y-82776196D01*
X93309964Y-82901500D01*
X93316411Y-82942202D01*
X93310320Y-82980659D01*
X93282787Y-83008191D01*
X93244330Y-83014280D01*
X93238630Y-83013378D01*
X93233561Y-83012575D01*
X93198870Y-82994899D01*
X92535952Y-82331981D01*
X92517500Y-82287433D01*
X92517500Y-81272254D01*
X92517500Y-81272252D01*
X92505867Y-81213769D01*
X92461552Y-81147448D01*
X92395231Y-81103133D01*
X92336748Y-81091500D01*
X90797252Y-81091500D01*
X90758263Y-81099255D01*
X90738768Y-81103133D01*
X90672448Y-81147448D01*
X90628133Y-81213768D01*
X90628132Y-81213769D01*
X90628133Y-81213769D01*
X90616500Y-81272252D01*
X90616500Y-82811748D01*
X90170500Y-82811748D01*
X90170500Y-80708500D01*
X90188952Y-80663952D01*
X90233500Y-80645500D01*
X105346500Y-80645500D01*
X105391048Y-80663952D01*
G37*
%TD.AperFunction*%
%TD*%
M02*
