%TF.GenerationSoftware,KiCad,Pcbnew,7.0.1*%
%TF.CreationDate,2023-03-31T16:52:12+01:00*%
%TF.ProjectId,QuectoDrive,51756563-746f-4447-9269-76652e6b6963,rev?*%
%TF.SameCoordinates,Original*%
%TF.FileFunction,Soldermask,Top*%
%TF.FilePolarity,Negative*%
%FSLAX46Y46*%
G04 Gerber Fmt 4.6, Leading zero omitted, Abs format (unit mm)*
G04 Created by KiCad (PCBNEW 7.0.1) date 2023-03-31 16:52:12*
%MOMM*%
%LPD*%
G01*
G04 APERTURE LIST*
G04 Aperture macros list*
%AMRoundRect*
0 Rectangle with rounded corners*
0 $1 Rounding radius*
0 $2 $3 $4 $5 $6 $7 $8 $9 X,Y pos of 4 corners*
0 Add a 4 corners polygon primitive as box body*
4,1,4,$2,$3,$4,$5,$6,$7,$8,$9,$2,$3,0*
0 Add four circle primitives for the rounded corners*
1,1,$1+$1,$2,$3*
1,1,$1+$1,$4,$5*
1,1,$1+$1,$6,$7*
1,1,$1+$1,$8,$9*
0 Add four rect primitives between the rounded corners*
20,1,$1+$1,$2,$3,$4,$5,0*
20,1,$1+$1,$4,$5,$6,$7,0*
20,1,$1+$1,$6,$7,$8,$9,0*
20,1,$1+$1,$8,$9,$2,$3,0*%
%AMFreePoly0*
4,1,14,0.085355,0.385355,0.100000,0.350000,0.100000,-0.350000,0.085355,-0.385355,0.050000,-0.400000,0.000711,-0.400000,-0.034644,-0.385355,-0.085355,-0.334644,-0.100000,-0.299289,-0.100000,0.350000,-0.085355,0.385355,-0.050000,0.400000,0.050000,0.400000,0.085355,0.385355,0.085355,0.385355,$1*%
%AMFreePoly1*
4,1,14,0.085355,0.385355,0.100000,0.350000,0.100000,-0.299289,0.085355,-0.334644,0.034644,-0.385355,-0.000711,-0.400000,-0.050000,-0.400000,-0.085355,-0.385355,-0.100000,-0.350000,-0.100000,0.350000,-0.085355,0.385355,-0.050000,0.400000,0.050000,0.400000,0.085355,0.385355,0.085355,0.385355,$1*%
%AMFreePoly2*
4,1,14,0.385355,0.085355,0.400000,0.050000,0.400000,-0.050000,0.385355,-0.085355,0.350000,-0.100000,-0.350000,-0.100000,-0.385355,-0.085355,-0.400000,-0.050000,-0.400000,-0.000711,-0.385355,0.034644,-0.334643,0.085355,-0.299289,0.100000,0.350000,0.100000,0.385355,0.085355,0.385355,0.085355,$1*%
%AMFreePoly3*
4,1,14,0.385355,0.085355,0.400000,0.050000,0.400000,-0.050000,0.385355,-0.085355,0.350000,-0.100000,-0.299289,-0.100000,-0.334644,-0.085354,-0.385355,-0.034644,-0.400000,0.000711,-0.400000,0.050000,-0.385355,0.085355,-0.350000,0.100000,0.350000,0.100000,0.385355,0.085355,0.385355,0.085355,$1*%
%AMFreePoly4*
4,1,14,0.034644,0.385355,0.085355,0.334644,0.100000,0.299289,0.100000,-0.350000,0.085355,-0.385355,0.050000,-0.400000,-0.050000,-0.400000,-0.085355,-0.385355,-0.100000,-0.350000,-0.100000,0.350000,-0.085355,0.385355,-0.050000,0.400000,-0.000711,0.400000,0.034644,0.385355,0.034644,0.385355,$1*%
%AMFreePoly5*
4,1,14,0.085355,0.385355,0.100000,0.350000,0.100000,-0.350000,0.085355,-0.385355,0.050000,-0.400000,-0.050000,-0.400000,-0.085355,-0.385355,-0.100000,-0.350000,-0.100000,0.299289,-0.085355,0.334644,-0.034644,0.385355,0.000711,0.400000,0.050000,0.400000,0.085355,0.385355,0.085355,0.385355,$1*%
%AMFreePoly6*
4,1,14,0.385355,0.085355,0.400000,0.050000,0.400000,0.000711,0.385355,-0.034644,0.334644,-0.085355,0.299289,-0.100000,-0.350000,-0.100000,-0.385355,-0.085355,-0.400000,-0.050000,-0.400000,0.050000,-0.385355,0.085355,-0.350000,0.100000,0.350000,0.100000,0.385355,0.085355,0.385355,0.085355,$1*%
%AMFreePoly7*
4,1,14,0.334644,0.085355,0.385355,0.034644,0.400000,-0.000711,0.400000,-0.050000,0.385355,-0.085355,0.350000,-0.100000,-0.350000,-0.100000,-0.385355,-0.085355,-0.400000,-0.050000,-0.400000,0.050000,-0.385355,0.085355,-0.350000,0.100000,0.299289,0.100000,0.334644,0.085355,0.334644,0.085355,$1*%
G04 Aperture macros list end*
%ADD10R,1.700000X1.700000*%
%ADD11FreePoly0,0.000000*%
%ADD12RoundRect,0.050000X-0.050000X-0.350000X0.050000X-0.350000X0.050000X0.350000X-0.050000X0.350000X0*%
%ADD13FreePoly1,0.000000*%
%ADD14FreePoly2,0.000000*%
%ADD15RoundRect,0.050000X-0.350000X-0.050000X0.350000X-0.050000X0.350000X0.050000X-0.350000X0.050000X0*%
%ADD16FreePoly3,0.000000*%
%ADD17FreePoly4,0.000000*%
%ADD18FreePoly5,0.000000*%
%ADD19FreePoly6,0.000000*%
%ADD20FreePoly7,0.000000*%
%ADD21RoundRect,0.135000X0.185000X-0.135000X0.185000X0.135000X-0.185000X0.135000X-0.185000X-0.135000X0*%
%ADD22R,2.000000X2.000000*%
%ADD23R,1.500000X1.500000*%
%ADD24RoundRect,0.140000X0.170000X-0.140000X0.170000X0.140000X-0.170000X0.140000X-0.170000X-0.140000X0*%
%ADD25RoundRect,0.140000X-0.170000X0.140000X-0.170000X-0.140000X0.170000X-0.140000X0.170000X0.140000X0*%
%ADD26RoundRect,0.135000X-0.135000X-0.185000X0.135000X-0.185000X0.135000X0.185000X-0.135000X0.185000X0*%
%ADD27RoundRect,0.218750X-0.218750X-0.256250X0.218750X-0.256250X0.218750X0.256250X-0.218750X0.256250X0*%
%ADD28RoundRect,0.140000X-0.140000X-0.170000X0.140000X-0.170000X0.140000X0.170000X-0.140000X0.170000X0*%
%ADD29R,0.500000X0.250000*%
%ADD30R,0.900000X1.600000*%
%ADD31RoundRect,0.150000X0.150000X-0.512500X0.150000X0.512500X-0.150000X0.512500X-0.150000X-0.512500X0*%
G04 APERTURE END LIST*
D10*
%TO.C,U2*%
X95587000Y-84201000D03*
D11*
X94787000Y-82751000D03*
D12*
X95187000Y-82751000D03*
X95587000Y-82751000D03*
X95987000Y-82751000D03*
D13*
X96387000Y-82751000D03*
D14*
X97037000Y-83401000D03*
D15*
X97037000Y-83801000D03*
X97037000Y-84201000D03*
X97037000Y-84601000D03*
D16*
X97037000Y-85001000D03*
D17*
X96387000Y-85651000D03*
D12*
X95987000Y-85651000D03*
X95587000Y-85651000D03*
X95187000Y-85651000D03*
D18*
X94787000Y-85651000D03*
D19*
X94137000Y-85001000D03*
D15*
X94137000Y-84601000D03*
X94137000Y-84201000D03*
X94137000Y-83801000D03*
D20*
X94137000Y-83401000D03*
%TD*%
D21*
%TO.C,R3*%
X98806000Y-87628000D03*
X98806000Y-88648000D03*
%TD*%
D22*
%TO.C,TP1*%
X91821000Y-87884000D03*
%TD*%
D23*
%TO.C,TP10*%
X91567000Y-82042000D03*
%TD*%
D24*
%TO.C,C1*%
X94234000Y-88237000D03*
X94234000Y-87277000D03*
%TD*%
D25*
%TO.C,C9*%
X101092000Y-90396000D03*
X101092000Y-89436000D03*
%TD*%
D26*
%TO.C,R1*%
X97153000Y-81280000D03*
X98173000Y-81280000D03*
%TD*%
D22*
%TO.C,TP12*%
X103759000Y-90805000D03*
%TD*%
D24*
%TO.C,C2*%
X94234000Y-90452000D03*
X94234000Y-91412000D03*
%TD*%
D21*
%TO.C,R2*%
X98806000Y-89660000D03*
X98806000Y-90680000D03*
%TD*%
D27*
%TO.C,D1*%
X100990500Y-81534000D03*
X99415500Y-81534000D03*
%TD*%
D22*
%TO.C,TP2*%
X91821000Y-91059000D03*
%TD*%
D28*
%TO.C,C8*%
X103604000Y-85598000D03*
X102644000Y-85598000D03*
%TD*%
D29*
%TO.C,U3*%
X101280000Y-84570000D03*
X101280000Y-84070000D03*
X101280000Y-83570000D03*
X101280000Y-83070000D03*
X99380000Y-83070000D03*
X99380000Y-83570000D03*
X99380000Y-84070000D03*
X99380000Y-84570000D03*
D30*
X100330000Y-83820000D03*
%TD*%
D22*
%TO.C,TP16*%
X103759000Y-82550000D03*
%TD*%
D25*
%TO.C,C6*%
X99949000Y-90368000D03*
X99949000Y-89408000D03*
%TD*%
D28*
%TO.C,C5*%
X100556000Y-85852000D03*
X99596000Y-85852000D03*
%TD*%
D29*
%TO.C,U4*%
X102550000Y-88380000D03*
X102550000Y-87880000D03*
X102550000Y-87380000D03*
X102550000Y-86880000D03*
X100650000Y-86880000D03*
X100650000Y-87380000D03*
X100650000Y-87880000D03*
X100650000Y-88380000D03*
D30*
X101600000Y-87630000D03*
%TD*%
D31*
%TO.C,U1*%
X95570000Y-88524500D03*
X97470000Y-88524500D03*
X97470000Y-90799500D03*
X96520000Y-90799500D03*
X95570000Y-90799500D03*
%TD*%
D23*
%TO.C,TP6*%
X91567000Y-84582000D03*
%TD*%
M02*
