M48
; DRILL file {KiCad 7.0.1} date Fri Mar 31 16:52:12 2023
; FORMAT={-:-/ absolute / inch / decimal}
; #@! TF.CreationDate,2023-03-31T16:52:12+01:00
; #@! TF.GenerationSoftware,Kicad,Pcbnew,7.0.1
; #@! TF.FileFunction,Plated,1,2,PTH
FMAT,2
INCH
; #@! TA.AperFunction,Plated,PTH,ViaDrill
T1C0.0118
; #@! TA.AperFunction,Plated,PTH,ViaDrill
T2C0.0157
%
G90
G05
T1
X3.565Y-3.28
X3.565Y-3.39
X3.565Y-3.525
X3.64Y-3.39
X3.665Y-3.52
X3.6689Y-3.2839
X3.675Y-3.575
X3.6896Y-3.2638
X3.6966Y-3.415
X3.705Y-3.245
X3.7135Y-3.525
X3.7337Y-3.455
X3.735Y-3.315
X3.7633Y-3.315
X3.776Y-3.5302
X3.7957Y-3.1893
X3.8034Y-3.5362
X3.865Y-3.3846
X3.865Y-3.44
X3.875Y-3.23
X3.875Y-3.26
X3.9116Y-3.595
X3.9123Y-3.55
X3.925Y-3.3505
X3.935Y-3.59
X3.985Y-3.245
X4.005Y-3.5
X4.015Y-3.635
X4.025Y-3.195
X4.025Y-3.34
X4.0315Y-3.4
X4.08Y-3.34
X4.08Y-3.41
X4.12Y-3.37
X4.125Y-3.19
X4.125Y-3.45
X4.13Y-3.31
X4.13Y-3.635
X4.135Y-3.515
T2
X3.745Y-3.525
X3.89Y-3.36
X3.9229Y-3.4714
X3.97Y-3.615
X4.01Y-3.37
X4.0512Y-3.3147
X4.07Y-3.51
T0
M30
